<svg width="55" height="37" fill="none" xmlns="http://www.w3.org/2000/svg"><path d="M52.164 12.024a.893.893 0 0 0-.742-.398h-5.366c-.494 0-.894.4-.894.894v3.577h-2.236V12.52a.895.895 0 0 0-.894-.894h-3.023l-2.437-4.87a.894.894 0 0 0-.8-.496h-8.049V1.79h5.366a.894.894 0 0 0 0-1.789H15.203a.894.894 0 0 0 0 1.789h5.366V6.26h-5.813a.894.894 0 0 0-.716.358l-2.414 3.22h-1.342a4.474 4.474 0 0 0-4.471 4.47v3.13H1.789V9.39A.894.894 0 0 0 0 9.39v17.438a.894.894 0 0 0 1.789 0v-7.601h4.024v6.707a4.473 4.473 0 0 0 4.471 4.472h4.995l6 5.996a.894.894 0 0 0 .631.264h20.57a.895.895 0 0 0 .893-.895v-4.918h1.789v3.577a.895.895 0 0 0 .894.894h5.366a.895.895 0 0 0 .716-.357c.116-.157 2.861-3.909 2.861-11.98 0-6.636-2.719-10.79-2.835-10.964ZM22.357 1.789h3.577v4.472h-3.577V1.789ZM50.93 33.536h-3.98V29.96a.895.895 0 0 0-.894-.894h-3.578c-.493 0-.894.4-.894.894v4.919H22.281L16.28 28.88a.894.894 0 0 0-.63-.264h-5.367a2.683 2.683 0 0 1-2.682-2.682V14.309a2.683 2.683 0 0 1 2.683-2.683h1.788a.894.894 0 0 0 .716-.358l2.414-3.22h20.014l2.437 4.87c.15.304.461.497.8.497h2.683v3.577a.895.895 0 0 0 .895.894h4.024a.895.895 0 0 0 .894-.894v-3.577h3.962a20.288 20.288 0 0 1 2.298 9.573c0 6.077-1.663 9.493-2.28 10.549Z" fill="#188AEC"/></svg>