<svg width="36" height="36" fill="none" xmlns="http://www.w3.org/2000/svg"><path d="M21.326 19.255c-.11-.273-.437-.437-.71-.328l-11.29 4.31c-.272.109-.436.436-.327.709.11.272.436.436.71.327l11.29-4.31a.546.546 0 0 0 .327-.708ZM22.688 22.8c-.11-.273-.436-.436-.709-.327l-11.29 4.309c-.328.164-.437.49-.328.764.11.272.437.436.71.327l11.29-4.364c.273-.109.436-.436.327-.709ZM20.616 27.055l-8.618 3.272c-.272.11-.436.437-.327.71.11.272.436.436.71.327l8.617-3.273c.273-.109.436-.436.327-.709-.109-.273-.436-.436-.709-.327Z" fill="#188AEC"/><path d="M28.907 21.164c-1.09 0-2.072.273-3 .655l-5.29-13.8a.984.984 0 0 0-.655-.654L13.09 4.638C11.835.82 7.8-.872 4.308.438.87 1.748-.874 5.674.435 9.11A6.783 6.783 0 0 0 3 12.33l-.927 1.854c-.164.272-.164.654-.055.927l7.364 19.308c.49 1.255 1.909 1.91 3.163 1.418l10.254-3.927a6.994 6.994 0 0 0 6.109 3.546c3.927 0 7.09-3.218 7.09-7.145 0-3.928-3.163-7.145-7.09-7.145ZM1.472 8.728A5.686 5.686 0 0 1 4.744 1.42c2.673-1.037 5.618.109 6.927 2.618l-2.509-.982c-.709-.273-1.527 0-1.854.709L3.49 11.347c-.927-.655-1.636-1.528-2.018-2.619ZM12.162 34.8c-.71.273-1.473-.054-1.745-.764L3.053 14.728v-.055l.927-1.8c1.582.71 3.273.819 4.964.219a3.043 3.043 0 0 0 3.272.763c1.582-.6 2.346-2.345 1.746-3.927-.6-1.527-2.346-2.4-3.927-1.745-1.582.6-2.4 2.4-1.746 4.036-1.254.382-2.618.273-3.818-.218L8.29 4.365c.11-.163.273-.272.491-.163l10.8 4.254.218-.49-.164.545 5.291 13.853c-2.781 1.855-3.872 5.4-2.618 8.563L12.162 34.8ZM10.417 9.165a1.808 1.808 0 0 1 1.309 0c-.491.981-1.418 2.072-2.4 2.618-.437-1.091.054-2.237 1.09-2.618Zm2.236.6c.818 1.036.382 2.563-.818 3.054-.6.218-1.255.163-1.8-.218.982-.6 2.018-1.746 2.618-2.836Zm16.254 24.599c-3.327 0-6-2.728-6-6.055 0-3.327 2.672-6.054 6-6.054 3.327 0 6 2.727 6 6.054 0 3.327-2.728 6.055-6 6.055Z" fill="#188AEC"/><path d="m29.453 27.49-.055-2.236c.6.11 1.2.328 1.691.71l.764-1.091A4.803 4.803 0 0 0 29.344 24v-.6h-.764v.6c-.763.055-1.418.273-1.909.71-.49.436-.709.981-.709 1.69 0 .71.218 1.2.655 1.582.436.327 1.09.655 1.963.873v2.236c-.709-.11-1.418-.437-2.072-1.037l-.819 1.037c.873.764 1.855 1.2 2.946 1.309v.873h.764V32.4c.818-.055 1.472-.273 1.963-.71.491-.436.764-1.036.764-1.69 0-.71-.218-1.255-.655-1.582-.436-.436-1.145-.709-2.018-.927Zm-.818-.217c-.437-.164-.764-.273-.927-.437-.164-.163-.218-.382-.218-.654 0-.273.109-.491.327-.655.218-.163.49-.273.818-.327v2.073Zm1.69 3.49c-.217.164-.545.273-.927.328v-2.182c.491.164.819.273.982.437a.904.904 0 0 1 .273.654c0 .382-.11.6-.327.764Z" fill="#188AEC"/></svg>