<svg width="40" height="40" fill="none" xmlns="http://www.w3.org/2000/svg"><path d="M5.833 36.667V8.333c0-3.333 2.234-5 5-5h13.334c2.766 0 5 1.667 5 5v28.334H5.833ZM3.333 36.667h28.334" stroke="#188AEC" stroke-width="1.5" stroke-linecap="round" stroke-linejoin="round"/><path d="M13.983 16.667h7.05c1.734 0 3.15-.834 3.15-3.15v-2.05c0-2.317-1.416-3.15-3.15-3.15h-7.05c-1.733 0-3.15.833-3.15 3.15v2.05c0 2.316 1.417 3.15 3.15 3.15ZM10.833 21.667h5M29.167 26.683l7.5-.016v-10L33.333 15" stroke="#188AEC" stroke-width="1.5" stroke-linecap="round" stroke-linejoin="round"/></svg>