<svg width="36" height="36" fill="none" xmlns="http://www.w3.org/2000/svg"><path d="M36 18c0-9.9-8.1-18-18-18S0 8.1 0 18s8.1 18 18 18 18-8.1 18-18ZM1.2 18C1.2 8.76 8.762 1.2 18 1.2c9.24 0 16.8 7.56 16.8 16.8 0 9.24-7.56 16.8-16.8 16.8-9.24 0-16.8-7.56-16.8-16.8Z" fill="#188AEC"/><path d="M32.58 18.12c0-8.04-6.54-14.64-14.64-14.64-8.1 0-14.58 6.6-14.58 14.64 0 8.04 6.54 14.64 14.64 14.64 8.1 0 14.58-6.54 14.58-14.64ZM18 31.56c-7.44 0-13.44-6-13.44-13.44 0-7.38 6-13.44 13.44-13.44 7.379 0 13.44 6 13.44 13.44-.06 7.44-6.06 13.44-13.44 13.44Z" fill="#188AEC"/><path d="M18.9 21.18v-6.54c0-.36-.24-.6-.6-.6s-.6.24-.6.6v6.54c-1.38.3-2.46 1.5-2.46 3 0 1.68 1.38 3.06 3.06 3.06 1.68 0 3.06-1.38 3.06-3.06-.06-1.5-1.08-2.7-2.46-3Zm-.6 4.8a1.87 1.87 0 0 1-1.86-1.86c0-1.02.84-1.8 1.8-1.86 1.02 0 1.8.84 1.8 1.86.06 1.08-.78 1.86-1.74 1.86Z" fill="#188AEC"/><path d="M18 6.42c-6.36 0-11.46 5.16-11.46 11.46v.24c.06.3.3.54.6.54h4.02c.18 0 .36-.06.42-.18.12-.12.18-.3.18-.48v-.12c0-3.42 2.76-6.24 6.24-6.24 3.42 0 6.24 2.82 6.24 6.3v.12c0 .36.24.6.6.6h4.02c.36 0 .6-.3.6-.6v-.12c0-6.36-5.16-11.52-11.46-11.52Zm-7.44 11.04H7.74c.12-2.4 1.02-4.62 2.58-6.36l1.98 1.98c-1.08 1.26-1.68 2.76-1.74 4.38Zm2.58-5.22-1.98-1.98c1.86-1.68 4.32-2.64 6.84-2.64 2.52 0 4.98.9 6.84 2.64l-1.98 1.98a7.476 7.476 0 0 0-4.86-1.8c-1.8 0-3.54.66-4.86 1.8Zm12.3 5.22a7.82 7.82 0 0 0-1.74-4.38l1.98-1.98c1.56 1.8 2.46 4.02 2.58 6.36h-2.82Z" fill="#188AEC"/></svg>