<svg width="39" height="37" fill="none" xmlns="http://www.w3.org/2000/svg"><path d="M17.476 27.84h-.415V13.207c0-2.166-1.74-3.93-3.895-3.971V7.048h.37a2.627 2.627 0 0 0 2.624-2.624V2.626A2.627 2.627 0 0 0 13.536.002H5.748a2.627 2.627 0 0 0-2.624 2.624v1.798a2.627 2.627 0 0 0 2.624 2.624h.37v2.188a3.977 3.977 0 0 0-3.895 3.97V27.84h-.415A1.81 1.81 0 0 0 0 29.648v5.544C0 36.19.81 37 1.808 37h15.668a1.81 1.81 0 0 0 1.808-1.808v-5.544a1.81 1.81 0 0 0-1.808-1.808ZM4.18 4.423V2.626a1.57 1.57 0 0 1 1.568-1.568h7.788a1.57 1.57 0 0 1 1.568 1.568v1.797a1.57 1.57 0 0 1-1.568 1.568H5.748A1.57 1.57 0 0 1 4.18 4.423Zm7.929 2.625v2.185H7.175V7.048h4.934Zm-8.83 6.158a2.92 2.92 0 0 1 2.917-2.916h6.891a2.92 2.92 0 0 1 2.917 2.916V27.84H3.28V13.206Zm14.948 21.986a.752.752 0 0 1-.751.751H1.808a.752.752 0 0 1-.751-.75v-5.545c0-.414.337-.751.75-.751h15.669c.414 0 .75.337.75.751v5.544ZM38.096 28.733a2.318 2.318 0 0 0-1.888-.604l-4.715.62c.23-.478.29-1.027.164-1.548L27.76 11.014a2.319 2.319 0 0 0-2.26-1.78h-2.648c-.143 0-.284.013-.422.04l-.34-2.245c.093.012.188.02.284.02h2.173a2.32 2.32 0 0 0 1.782-.831 2.32 2.32 0 0 0 .51-1.898l-.423-2.397A2.323 2.323 0 0 0 24.127 0h-1.92c-.643 0-1.263.27-1.702.74a2.335 2.335 0 0 0-.619 1.749l.168 2.396c.048.68.39 1.279.896 1.673l.48 3.162a2.329 2.329 0 0 0-.896 2l1.183 16.893c.04.57.286 1.098.686 1.492a2.35 2.35 0 0 0-.02.605 2.298 2.298 0 0 0-.415 1.495l.184 2.632A2.334 2.334 0 0 0 24.472 37h11.783c1.228 0 2.248-.96 2.322-2.185l.256-4.24a2.32 2.32 0 0 0-.737-1.843v.001ZM21.28 1.461c.243-.26.573-.404.928-.404h1.92a1.27 1.27 0 0 1 1.25 1.05l.421 2.396a1.268 1.268 0 0 1-1.25 1.489h-2.173c-.664 0-1.22-.52-1.266-1.18l-.168-2.397a1.252 1.252 0 0 1 .338-.954Zm.308 10.186a1.255 1.255 0 0 1 .337-.953c.244-.26.572-.404.928-.404H25.5c.59 0 1.096.4 1.233.972l3.896 16.187c.085.352.02.71-.185 1.01a1.255 1.255 0 0 1-.862.541l-2.743.362-.038-.066-.031-.055a2.258 2.258 0 0 0-.073-.111l-.025-.036a2.148 2.148 0 0 0-.107-.137l-.031-.036a2.212 2.212 0 0 0-.086-.094c-.014-.016-.03-.03-.046-.045l-.079-.075-.052-.044a1.783 1.783 0 0 0-.083-.067l-.054-.04c-.03-.023-.061-.043-.093-.065a1.908 1.908 0 0 0-.202-.12 1.983 1.983 0 0 0-.157-.071c-.015-.008-.032-.013-.05-.02-.037-.014-.074-.029-.113-.041a3.656 3.656 0 0 0-.238-.068 1.927 1.927 0 0 0-.11-.022c-.022-.005-.043-.009-.066-.012l-.12-.015-.058-.006a2.595 2.595 0 0 0-.182-.008c-.058 0-.115.003-.171.006l-.048.005c-.045.004-.09.01-.134.016l-.038.005c-.055.01-.11.02-.164.033l-.035.01c-.043.01-.086.023-.128.037l-.045.014c-.05.016-.101.035-.15.055-.002 0-.003 0-.005.002-.05.02-.1.044-.15.07l-.04.02a2 2 0 0 0-.114.065l-.032.019c-.046.029-.091.06-.135.09l-.027.021c-.036.027-.07.054-.105.083l-.035.03c-.039.033-.077.068-.114.105l-.006.006c-.04.04-.076.08-.112.12l-.03.035-.035.044a1.251 1.251 0 0 1-.12-.46l-1.184-16.892Zm1.87 19.1a1.297 1.297 0 0 1 .038-.672 1.312 1.312 0 0 1 1.466-.893 1.309 1.309 0 0 1 1.103 1.299 1.319 1.319 0 0 1-1.433 1.311 1.32 1.32 0 0 1-1.174-1.046v.001Zm14.322-.235-.256 4.24a1.27 1.27 0 0 1-1.267 1.192H24.473c-.664 0-1.22-.52-1.266-1.18l-.184-2.633-.001-.022c.023.024.047.049.072.072l.008.008c.042.041.088.08.133.118l.027.022c.045.036.09.07.138.103l.025.017c.05.033.098.064.148.092l.008.004c.052.03.105.056.159.081l.03.015c.053.025.107.046.162.067l.03.01c.055.02.113.038.17.054l.005.001c.058.016.118.029.178.04l.034.007c.058.01.117.018.176.023.012 0 .023.002.034.003a2.352 2.352 0 0 0 1.417-.336 2.376 2.376 0 0 0 1.144-2.029c0-.03 0-.061-.002-.09l2.597-.342h.004l.01-.002 6.618-.87a1.265 1.265 0 0 1 1.43 1.334h.002Z" fill="#188AEC"/></svg>