<svg width="37" height="47" fill="none" xmlns="http://www.w3.org/2000/svg"><path d="M21.948 43.157v-7.353c8.155-1.762 14.265-9.015 14.265-17.697C36.213 8.107 28.107 0 18.107 0 8.107 0-.001 8.107-.001 18.107c0 8.681 6.111 15.935 14.265 17.697v7.353A3.847 3.847 0 0 0 18.106 47a3.847 3.847 0 0 0 3.842-3.843Zm-6.694 0V22.51a2.45 2.45 0 0 0-.058-.372l-.002.001a3.122 3.122 0 0 0-.017-.08c-.036-.15-.075-.264-.082-.287-.114-.316-.304-.605-.62-.765-.46-.234-1.021-.115-1.667.355l-4.733 3.456-.01.009c-.177.135-.751.653-.751 1.6 0 .064.004.13.01.195 0 .014.003.027.003.04.006.055.013.11.022.166l.005.03c.012.061.025.123.04.184 0 .006.002.01.003.015.194.77.733 1.6 1.612 2.48a.176.176 0 0 1 .008.009l.009-.003a14.555 14.555 0 0 0 5.238 2.654v2.591a17.001 17.001 0 0 1-8.262-4.579A17.005 17.005 0 0 1 .99 18.105c0-4.572 1.78-8.87 5.013-12.104A17.005 17.005 0 0 1 18.106.988C22.68.988 26.977 2.768 30.21 6a17.007 17.007 0 0 1 5.014 12.104c0 4.573-1.78 8.871-5.014 12.104a17.001 17.001 0 0 1-8.262 4.582v-2.594a14.582 14.582 0 0 0 5.239-2.654l.009.003a.236.236 0 0 0 .008-.009c.879-.88 1.417-1.71 1.611-2.48l.004-.014a3.24 3.24 0 0 0 .04-.185l.005-.03c.01-.056.016-.11.021-.166l.005-.04c.005-.065.009-.13.009-.196 0-.946-.575-1.464-.75-1.6l-.011-.008-4.733-3.456c-.647-.47-1.208-.589-1.668-.355-.315.16-.505.448-.62.765a3.802 3.802 0 0 0-.098.367h-.002c-.027.117-.05.248-.058.37v20.647a2.856 2.856 0 0 1-2.853 2.853 2.856 2.856 0 0 1-2.852-2.852ZM14.028 21.89c.094.048.224.369.236.855v1.977a7.71 7.71 0 0 1-2.03-1.715l1.15-.84.011-.008c.394-.284.59-.291.633-.27Zm.237 3.96v2.19a10.612 10.612 0 0 1-4.454-3.263l1.618-1.183a8.686 8.686 0 0 0 2.836 2.256Zm0 3.24v2.083a13.488 13.488 0 0 1-4.623-2.403l-.004-.004c-.892-.91-1.214-1.588-1.305-2.052v-.001a1.49 1.49 0 0 1-.016-.102l-.003-.026a1.142 1.142 0 0 1-.01-.158c0-.498.291-.758.36-.813l.347-.253a11.665 11.665 0 0 0 5.254 3.728Zm7.683-6.342c.012-.488.142-.81.237-.858.043-.022.24-.015.632.27l.012.008 1.15.84a7.709 7.709 0 0 1-2.03 1.715v-1.975Zm0 3.101a8.677 8.677 0 0 0 2.835-2.254l1.62 1.183c-.239.297-.496.583-.769.856a10.615 10.615 0 0 1-3.686 2.406v-2.19Zm0 3.24c2.086-.729 3.901-2.035 5.254-3.729l.346.253c.069.056.36.316.36.814a1.129 1.129 0 0 1-.01.158c0 .009 0 .017-.002.026-.004.032-.01.066-.016.101v.002c-.09.463-.413 1.141-1.305 2.052-.002 0-.003.002-.004.003a13.483 13.483 0 0 1-4.623 2.403V29.09Z" fill="#188AEC"/><path d="m12.002 18.107-5.619-4.06a2.35 2.35 0 0 0-.772-.355H5.61c-.041-.01-.084-.02-.127-.027H5.48a1.71 1.71 0 0 0-.131-.018h-.004a1.86 1.86 0 0 0-.135-.01h-.005c-.045 0-.091 0-.138.004h-.005a2.225 2.225 0 0 0-.142.015l-.006.002a1.533 1.533 0 0 0-.146.03c-.041.011-.082.022-.125.037a1.67 1.67 0 0 0-.576.35 14.61 14.61 0 0 0-.564 4.031c0 1.365.188 2.687.539 3.94l.055.118.002-.001c.02.017.038.035.059.051a1.612 1.612 0 0 0 .61.31c.05.012.098.022.146.03l.006.001a1.5 1.5 0 0 0 .142.016h.005c.047.004.093.004.138.004h.005c.046-.001.09-.005.135-.01h.004c.045-.005.088-.01.13-.018h.003l.127-.026c.041-.011.082-.022.121-.034.351-.109.601-.284.652-.321l2.837-2.05 2.782-2.01Zm-7.033 3.447c-.014-.005-.028-.013-.042-.02a13.695 13.695 0 0 1 .002-6.855c.013-.005.026-.013.04-.018.385-.14.82.178.82.179l2.194 1.585 2.329 1.683-4.52 3.265c-.003.003-.438.32-.823.181ZM12.364 14.524c.087.057 2.16 1.38 5.743 1.38s5.657-1.324 5.743-1.38l.022-.014 4.276-3.124c.177-.135.75-.653.75-1.6a2.367 2.367 0 0 0-.034-.401l-.006-.032a3.273 3.273 0 0 0-.039-.183l-.004-.015a2.869 2.869 0 0 0-.06-.206c-.232-.712-.75-1.472-1.551-2.274a1.27 1.27 0 0 1-.03-.031l-.017.002h-.003a14.536 14.536 0 0 0-9.047-3.143c-3.418 0-6.56 1.176-9.048 3.143h-.002l-.017-.002-.03.031c-.8.801-1.32 1.562-1.552 2.274a3.079 3.079 0 0 0-.06.206l-.003.015a2.667 2.667 0 0 0-.04.183l-.005.032a2.76 2.76 0 0 0-.021.165l-.005.04c-.005.066-.009.131-.009.196 0 .947.575 1.465.75 1.6l4.277 3.124.022.014Zm12.42-1.905a8.627 8.627 0 0 0-6.677-3.156 8.627 8.627 0 0 0-6.677 3.155l-1.62-1.183c.24-.297.496-.583.77-.856a10.576 10.576 0 0 1 7.527-3.118c2.844 0 5.517 1.107 7.528 3.118.272.273.53.559.769.856l-1.62 1.183ZM8.305 9.785c0-.451.238-1.221 1.342-2.347a13.512 13.512 0 0 1 8.46-2.947c3.112 0 6.064 1.038 8.462 2.947 1.104 1.126 1.341 1.896 1.341 2.347 0 .498-.291.758-.36.813l-.346.253a11.613 11.613 0 0 0-9.096-4.38c-3.682 0-6.965 1.71-9.097 4.38l-.344-.252a1.033 1.033 0 0 1-.362-.814Zm3.93 3.42a7.639 7.639 0 0 1 5.873-2.754 7.639 7.639 0 0 1 5.872 2.754l-.677.494c-.141.088-2.028 1.215-5.195 1.215-3.168 0-5.054-1.128-5.195-1.215l-.677-.494ZM30.485 22.488c.038.012.079.023.12.034h.001c.04.01.082.018.126.026h.003c.043.008.086.013.13.019h.004c.044.004.09.007.135.008h.005c.046.001.092 0 .139-.003h.005c.047-.003.094-.009.142-.016h.006c.048-.009.096-.018.145-.031.041-.012.083-.022.125-.037.175-.061.338-.153.486-.273.02-.016.038-.034.058-.051l.002.001.056-.117c.35-1.254.538-2.576.538-3.94 0-1.4-.197-2.751-.564-4.031a1.667 1.667 0 0 0-.576-.351 1.652 1.652 0 0 0-.418-.084h-.005c-.047-.003-.093-.004-.14-.003h-.004a1.659 1.659 0 0 0-.135.009h-.004c-.044.004-.087.01-.13.018h-.003a1.659 1.659 0 0 0-.126.027h-.001a2.345 2.345 0 0 0-.773.354l-5.619 4.06 2.783 2.012 2.837 2.05c.05.035.3.21.652.319Zm-.064-1.116-4.519-3.265 2.328-1.683 2.194-1.585c.002-.002.436-.318.822-.179l.039.018a13.69 13.69 0 0 1 .002 6.855c-.014.007-.027.015-.042.02-.384.14-.82-.178-.824-.18ZM20.041 42.843a1.934 1.934 0 1 0-3.869 0 1.934 1.934 0 0 0 3.87 0Zm-2.879 0c0-.52.424-.945.945-.945.52 0 .945.424.945.945 0 .52-.424.945-.945.945a.946.946 0 0 1-.945-.945Z" fill="#188AEC"/></svg>