<svg width="45" height="35" fill="none" xmlns="http://www.w3.org/2000/svg"><path d="M25.885 35h-1.89a.636.636 0 0 1 0-1.273h1.89a.636.636 0 1 1 0 1.273Z" fill="#188AEC"/><path d="M40.222 35H30.34a.636.636 0 0 1 0-1.273h9.542a21.053 21.053 0 0 0 2.364-17.944A21.145 21.145 0 0 0 34.61 5.284a20.997 20.997 0 0 0-24.679 0 21.147 21.147 0 0 0-7.636 10.499 21.059 21.059 0 0 0 2.367 17.943h8.58a.636.636 0 1 1 0 1.273H4.321a.636.636 0 0 1-.528-.28 22.322 22.322 0 0 1-2.705-19.332A22.418 22.418 0 0 1 9.183 4.252a22.272 22.272 0 0 1 26.177 0 22.422 22.422 0 0 1 8.095 11.135 22.327 22.327 0 0 1-2.706 19.332.636.636 0 0 1-.528.28l.001.001Z" fill="#188AEC"/><path d="M19.542 35h-1.845a.636.636 0 0 1 0-1.273h1.845a.636.636 0 1 1 0 1.273ZM22.273 3.635a.636.636 0 0 1-.636-.636V.639a.636.636 0 1 1 1.272 0V3a.637.637 0 0 1-.636.636ZM10.945 7.317a.636.636 0 0 1-.515-.263L9.043 5.145a.636.636 0 1 1 1.029-.748l1.387 1.91a.636.636 0 0 1-.514 1.01ZM3.939 16.954a.62.62 0 0 1-.196-.032l-2.244-.729a.637.637 0 0 1 .393-1.209l2.244.727a.636.636 0 0 1-.197 1.243ZM1.695 29.596a.637.637 0 0 1-.197-1.242l2.245-.729a.638.638 0 0 1 .785.898.636.636 0 0 1-.393.311l-2.244.73a.633.633 0 0 1-.196.032ZM42.847 29.596a.632.632 0 0 1-.196-.031l-2.244-.73a.637.637 0 1 1 .392-1.209l2.245.729a.637.637 0 0 1-.197 1.242v-.001ZM40.603 16.954a.636.636 0 0 1-.196-1.243l2.243-.729a.636.636 0 0 1 .393 1.21l-2.244.73a.62.62 0 0 1-.196.032ZM33.598 7.317a.636.636 0 0 1-.51-1.01l1.388-1.91a.636.636 0 1 1 1.029.749l-1.387 1.909a.637.637 0 0 1-.52.262ZM21.204 27.706a3.697 3.697 0 0 1-3.357-5.226c.716-1.569 7.434-9.636 8.198-10.551a.636.636 0 0 1 1.117.509c-.19 1.176-1.881 11.539-2.598 13.108a3.7 3.7 0 0 1-3.36 2.163v-.003Zm4.316-13.15c-2.8 3.402-6.104 7.551-6.515 8.451a2.42 2.42 0 1 0 4.402 2.009c.411-.898 1.378-6.116 2.113-10.46Z" fill="#188AEC"/></svg>