<svg width="2098" height="1046" viewBox="0 0 2098 1046" fill="none" xmlns="http://www.w3.org/2000/svg">
<path d="M1800.79 1028.97H1717.08C1716.8 1028.97 1716.58 1029.19 1716.58 1029.47V1033.02C1716.58 1033.29 1716.8 1033.52 1717.08 1033.52H1800.79C1801.07 1033.52 1801.29 1033.29 1801.29 1033.02V1029.47C1801.29 1029.19 1801.07 1028.97 1800.79 1028.97Z" fill="#5FC8FB"/>
<path d="M399.91 304.309C415.8 304.309 429.61 292.769 431.76 277.029C432.146 274.165 432.339 271.279 432.34 268.389C432.34 260.055 430.698 251.803 427.509 244.104C424.32 236.405 419.645 229.409 413.753 223.516C407.86 217.623 400.864 212.949 393.165 209.76C385.465 206.57 377.213 204.929 368.88 204.929C367.44 204.929 366.02 204.999 364.6 205.089C363.105 187.785 354.99 171.726 341.946 160.259C328.901 148.793 311.934 142.803 294.582 143.539C277.229 144.275 260.831 151.681 248.805 164.211C236.778 176.742 230.053 193.431 230.03 210.799C230.03 212.449 230.11 214.079 230.23 215.699C220.33 210.18 209.199 207.246 197.866 207.168C186.532 207.09 175.362 209.871 165.388 215.254C155.414 220.636 146.958 228.447 140.802 237.964C134.647 247.48 130.99 258.395 130.17 269.699C130.17 269.969 130.17 270.239 130.17 270.509C129.94 274.873 130.603 279.238 132.118 283.337C133.633 287.436 135.969 291.182 138.982 294.347C141.996 297.512 145.623 300.029 149.643 301.744C153.662 303.458 157.99 304.335 162.36 304.319L399.91 304.309Z" fill="#EFFAFF"/>
<path d="M2058.73 459.93C2108.91 459.93 2111.73 384.41 2061.57 381.93C2060.2 381.86 2058.82 381.829 2057.44 381.829C2048.73 381.82 2040.08 383.17 2031.79 385.829C2028.46 365.426 2017.89 346.903 2002.03 333.646C1986.17 320.388 1966.06 313.281 1945.39 313.623C1924.72 313.965 1904.86 321.734 1889.45 335.509C1874.03 349.285 1864.09 368.147 1861.43 388.649C1844.56 380.609 1825.41 378.747 1807.31 383.389C1763.43 394.689 1772.64 459.98 1817.95 459.98L2058.73 459.93Z" fill="#EFFAFF"/>
<path d="M1620.86 146.08C1671.03 146.08 1673.8 70.5795 1623.7 68.1395C1622.33 68.0795 1620.95 68.0395 1619.56 68.0395C1610.86 68.0301 1602.21 69.3797 1593.93 72.0395C1590.57 51.6831 1580 33.2122 1564.16 19.9906C1548.32 6.76913 1528.26 -0.32331 1507.63 0.00505189C1487 0.333414 1467.18 8.06073 1451.77 21.7796C1436.35 35.4986 1426.38 54.2964 1423.67 74.7495C1406.81 66.7027 1387.66 64.8442 1369.57 69.4995C1325.7 80.7895 1334.91 146.059 1380.2 146.059L1620.86 146.08Z" fill="#EFFAFF"/>
<path d="M1663.51 317.196C1664.52 279.798 1649.95 249.064 1630.97 248.551C1611.98 248.037 1595.77 277.937 1594.76 315.336C1593.74 352.734 1608.32 383.467 1627.3 383.981C1646.29 384.495 1662.5 354.594 1663.51 317.196Z" fill="#EFFAFF"/>
<path d="M1798.65 131.637C1799.11 114.716 1397.17 90.1122 900.908 76.6836C404.641 63.255 1.96663 66.0863 1.50875 83.0077C1.05087 99.929 402.983 124.532 899.25 137.961C1395.52 151.39 1798.19 148.558 1798.65 131.637Z" fill="#EFFAFF"/>
<path d="M433.36 498.746C434.169 468.878 422.883 444.343 408.154 443.944C393.424 443.546 380.828 467.435 380.02 497.303C379.212 527.17 390.497 551.706 405.227 552.104C419.956 552.503 432.552 528.614 433.36 498.746Z" fill="#EFFAFF"/>
<path d="M133.908 428.326C135.038 386.539 123.236 352.32 107.545 351.895C91.8551 351.471 78.2191 385.002 77.0884 426.789C75.9577 468.576 87.7604 502.795 103.451 503.22C119.141 503.644 132.777 470.113 133.908 428.326Z" fill="#EFFAFF"/>
<path d="M1969.3 636.018C1970.51 591.156 1956.68 554.387 1938.4 553.892C1920.12 553.397 1904.32 589.365 1903.11 634.227C1901.89 679.089 1915.73 715.858 1934.01 716.353C1952.28 716.847 1968.09 680.88 1969.3 636.018Z" fill="#EFFAFF"/>
<path d="M958.13 514.429L1198.46 443.849C1199.53 443.536 1200.53 443.014 1201.4 442.315C1202.27 441.615 1202.99 440.751 1203.52 439.773C1204.06 438.794 1204.4 437.719 1204.52 436.61C1204.63 435.501 1204.53 434.379 1204.22 433.309L1106.13 99.309C1105.82 98.2385 1105.3 97.2403 1104.6 96.3714C1103.9 95.5025 1103.03 94.7799 1102.05 94.245C1101.07 93.7101 1100 93.3733 1098.89 93.2539C1097.78 93.1344 1096.66 93.2348 1095.59 93.5491L931.04 141.879C928.928 142.488 927.136 143.894 926.04 145.799L871.63 240.799C871.061 241.792 870.699 242.889 870.565 244.024C870.431 245.16 870.528 246.312 870.85 247.409L947.59 508.649C947.902 509.721 948.421 510.722 949.12 511.593C949.819 512.464 950.682 513.189 951.661 513.726C952.64 514.262 953.715 514.601 954.826 514.722C955.936 514.842 957.058 514.743 958.13 514.429Z" fill="white"/>
<path d="M958.13 514.429L1198.46 443.849C1199.53 443.536 1200.53 443.014 1201.4 442.315C1202.27 441.615 1202.99 440.751 1203.52 439.773C1204.06 438.794 1204.4 437.719 1204.52 436.61C1204.63 435.501 1204.53 434.379 1204.22 433.309L1106.13 99.309C1105.82 98.2385 1105.3 97.2403 1104.6 96.3714C1103.9 95.5025 1103.03 94.7799 1102.05 94.245C1101.07 93.7101 1100 93.3733 1098.89 93.2539C1097.78 93.1344 1096.66 93.2348 1095.59 93.5491L931.04 141.879C928.928 142.488 927.136 143.894 926.04 145.799L871.63 240.799C871.061 241.792 870.699 242.889 870.565 244.024C870.431 245.16 870.528 246.312 870.85 247.409L947.59 508.649C947.902 509.721 948.421 510.722 949.12 511.593C949.819 512.464 950.682 513.189 951.661 513.726C952.64 514.262 953.715 514.601 954.826 514.722C955.936 514.842 957.058 514.743 958.13 514.429Z" stroke="#188AEC" stroke-width="8" stroke-linecap="round" stroke-linejoin="round"/>
<path d="M929.89 147.039L949.95 215.359C950.63 217.668 950.368 220.152 949.221 222.268C948.074 224.384 946.136 225.959 943.83 226.649L872.41 247.949" fill="white"/>
<path d="M929.89 147.039L949.95 215.359C950.63 217.668 950.368 220.152 949.221 222.268C948.074 224.384 946.136 225.959 943.83 226.649L872.41 247.949" stroke="#188AEC" stroke-width="8" stroke-linecap="round" stroke-linejoin="round"/>
<path d="M976.378 403.35L962.755 407.323C961.695 407.632 961.086 408.742 961.395 409.803L978.097 467.067C978.406 468.127 979.517 468.736 980.577 468.427L994.2 464.454C995.26 464.144 995.869 463.034 995.56 461.974L978.858 404.71C978.548 403.649 977.438 403.04 976.378 403.35Z" fill="#5FC8FB"/>
<path d="M1051.33 400.43L1037.71 404.403C1036.65 404.712 1036.04 405.823 1036.35 406.883L1047.96 446.685C1048.27 447.745 1049.38 448.354 1050.44 448.045L1064.06 444.071C1065.12 443.762 1065.73 442.652 1065.42 441.591L1053.81 401.79C1053.5 400.729 1052.39 400.12 1051.33 400.43Z" fill="#5FC8FB"/>
<path d="M1081.52 367.843L1067.9 371.843C1066.84 372.154 1066.23 373.265 1066.55 374.325L1083.36 431.557C1083.67 432.617 1084.78 433.224 1085.84 432.912L1099.45 428.913C1100.51 428.602 1101.12 427.49 1100.81 426.43L1084 369.199C1083.69 368.139 1082.57 367.532 1081.52 367.843Z" fill="#5FC8FB"/>
<path d="M1006.6 370.898L992.989 374.897C991.929 375.209 991.323 376.32 991.634 377.38L1013.57 452.055C1013.88 453.115 1014.99 453.721 1016.05 453.41L1029.67 449.411C1030.73 449.099 1031.33 447.988 1031.02 446.928L1009.09 372.253C1008.78 371.193 1007.66 370.587 1006.6 370.898Z" fill="#5FC8FB"/>
<path d="M926.08 283.499L1087.48 236.109" stroke="#BEEAFF" stroke-width="6" stroke-linecap="round" stroke-linejoin="round"/>
<path d="M933.77 309.679L1095.16 262.279" stroke="#BEEAFF" stroke-width="6" stroke-linecap="round" stroke-linejoin="round"/>
<path d="M941.45 335.849L1102.85 288.449" stroke="#BEEAFF" stroke-width="6" stroke-linecap="round" stroke-linejoin="round"/>
<path d="M1285.97 424.279L1291.97 411.539C1292.24 410.967 1292.38 410.345 1292.4 409.712C1292.41 409.08 1292.3 408.452 1292.05 407.868C1291.81 407.283 1291.45 406.756 1290.99 406.319C1290.54 405.882 1289.99 405.545 1289.4 405.329L1208.96 376.439L1205.43 382.809L1279.57 426.259C1280.11 426.578 1280.72 426.78 1281.34 426.852C1281.97 426.924 1282.6 426.865 1283.21 426.679C1283.81 426.493 1284.36 426.183 1284.84 425.77C1285.32 425.357 1285.7 424.849 1285.97 424.279Z" fill="#188AEC"/>
<path d="M1148.58 422.391C1184.57 422.391 1213.75 393.213 1213.75 357.221C1213.75 321.228 1184.57 292.051 1148.58 292.051C1112.59 292.051 1083.41 321.228 1083.41 357.221C1083.41 393.213 1112.59 422.391 1148.58 422.391Z" fill="#5FC8FB"/>
<path d="M1148.58 408.801C1177.07 408.801 1200.16 385.707 1200.16 357.221C1200.16 328.734 1177.07 305.641 1148.58 305.641C1120.09 305.641 1097 328.734 1097 357.221C1097 385.707 1120.09 408.801 1148.58 408.801Z" fill="white"/>
<path d="M1148.58 422.391C1184.57 422.391 1213.75 393.213 1213.75 357.221C1213.75 321.228 1184.57 292.051 1148.58 292.051C1112.59 292.051 1083.41 321.228 1083.41 357.221C1083.41 393.213 1112.59 422.391 1148.58 422.391Z" stroke="#188AEC" stroke-width="8" stroke-linecap="round" stroke-linejoin="round"/>
<path d="M1148.89 332.211L1148.5 364.031" stroke="#188AEC" stroke-width="8" stroke-linecap="round" stroke-linejoin="round"/>
<circle cx="1148.27" cy="382.211" r="4" fill="#188AEC"/>
<path d="M1148.27 382.229C1148.28 382.229 1148.29 382.22 1148.29 382.209C1148.29 382.198 1148.28 382.189 1148.27 382.189C1148.26 382.189 1148.25 382.198 1148.25 382.209C1148.25 382.22 1148.26 382.229 1148.27 382.229Z" stroke="#188AEC" stroke-width="8" stroke-linecap="round" stroke-linejoin="round"/>
<g clip-path="url(#clip0_191_1554)">
<path d="M943.209 1112.65C904.249 1063.88 882.133 990.94 876.859 893.82C871.619 797.26 885.726 722.62 919.179 669.9C952.633 617.18 1003.65 588.964 1072.24 585.25C1140.81 581.524 1194.58 604.054 1233.55 652.84C1272.52 701.627 1294.63 774.294 1299.86 870.84C1305.11 967.414 1291.01 1042.19 1257.56 1095.16C1224.11 1148.13 1173.11 1176.49 1104.56 1180.23C1035.95 1183.98 982.169 1161.45 943.209 1112.65Z" fill="white"/>
<path d="M943.209 1112.65C904.249 1063.88 882.133 990.94 876.859 893.82C871.619 797.26 885.726 722.62 919.179 669.9C952.633 617.18 1003.65 588.964 1072.24 585.25C1140.81 581.524 1194.58 604.054 1233.55 652.84C1272.52 701.627 1294.63 774.294 1299.86 870.84C1305.11 967.414 1291.01 1042.19 1257.56 1095.16C1224.11 1148.13 1173.11 1176.49 1104.56 1180.23C1035.95 1183.98 982.169 1161.45 943.209 1112.65Z" stroke="#188AEC" stroke-width="10" stroke-miterlimit="10"/>
<path d="M1178.73 1041.29C1193.87 1006.09 1199.42 951.177 1195.38 876.551C1191.3 801.391 1179.84 747.391 1161 714.551C1142.16 681.711 1114.07 666.324 1076.73 668.391C1039.4 670.391 1013.16 688.871 998.02 723.831C982.88 758.791 977.326 813.567 981.36 888.161C985.406 962.781 996.866 1016.78 1015.74 1050.16C1034.61 1083.54 1062.7 1099.21 1100 1097.16C1137.31 1095.13 1163.56 1076.5 1178.73 1041.29Z" fill="#EFFAFF"/>
<path d="M1178.73 1041.29C1193.87 1006.09 1199.42 951.177 1195.38 876.551C1191.3 801.391 1179.84 747.391 1161 714.551C1142.16 681.711 1114.07 666.324 1076.73 668.391C1039.4 670.391 1013.16 688.871 998.02 723.831C982.88 758.791 977.326 813.567 981.36 888.161C985.406 962.781 996.866 1016.78 1015.74 1050.16C1034.61 1083.54 1062.7 1099.21 1100 1097.16C1137.31 1095.13 1163.56 1076.5 1178.73 1041.29Z" stroke="#188AEC" stroke-width="10" stroke-miterlimit="10"/>
<path d="M1416.12 885.359H734.17V894.449H1416.12V885.359Z" fill="#188AEC"/>
<path d="M1873.64 887.67H1790.43C1790.02 887.67 1789.68 888.006 1789.68 888.42V893.74C1789.68 894.154 1790.02 894.49 1790.43 894.49H1873.64C1874.05 894.49 1874.39 894.154 1874.39 893.74V888.42C1874.39 888.006 1874.05 887.67 1873.64 887.67Z" fill="#188AEC"/>
<path d="M359.15 887.67H275.94C275.526 887.67 275.19 888.006 275.19 888.42V893.74C275.19 894.154 275.526 894.49 275.94 894.49H359.15C359.565 894.49 359.9 894.154 359.9 893.74V888.42C359.9 888.006 359.565 887.67 359.15 887.67Z" fill="#188AEC"/>
<path d="M1840.8 877.56L1776.73 890.44L1802.45 1018.65L1665.18 1046.23L1639.42 918L1387.9 968.54L1367.9 869.08L1521.62 476.46L1686.83 443.27L1752.89 772.05L1817.01 759.17L1840.8 877.56ZM1579.8 621.29L1507.15 821.46L1615.63 799.65L1579.8 621.29Z" fill="#188AEC"/>
<path d="M782.88 943.95L718.37 933.19L696.87 1062.19L558.76 1039.19L580.27 910.19L327.21 868.01L343.89 767.95L627.14 455.65L793.36 483.36L738.22 814.15L802.73 824.91L782.88 943.95ZM630.03 611.65L490.96 772.91L600.11 791.1L630.03 611.65Z" fill="#188AEC"/>
</g>
<path d="M385.31 1035.21H301.6C301.323 1035.21 301.1 1035.43 301.1 1035.71V1039.26C301.1 1039.54 301.323 1039.76 301.6 1039.76H385.31C385.586 1039.76 385.81 1039.54 385.81 1039.26V1035.71C385.81 1035.43 385.586 1035.21 385.31 1035.21Z" fill="#5FC8FB"/>
<path d="M615.17 1035.21H531.46C531.184 1035.21 530.96 1035.43 530.96 1035.71V1039.26C530.96 1039.54 531.184 1039.76 531.46 1039.76H615.17C615.446 1039.76 615.67 1039.54 615.67 1039.26V1035.71C615.67 1035.43 615.446 1035.21 615.17 1035.21Z" fill="#5FC8FB"/>
<path d="M824.37 981.219H740.66C740.384 981.219 740.16 981.443 740.16 981.719V985.269C740.16 985.545 740.384 985.769 740.66 985.769H824.37C824.646 985.769 824.87 985.545 824.87 985.269V981.719C824.87 981.443 824.646 981.219 824.37 981.219Z" fill="#5FC8FB"/>
<path d="M943.35 1040.92H859.64C859.364 1040.92 859.14 1041.15 859.14 1041.42V1044.97C859.14 1045.25 859.364 1045.47 859.64 1045.47H943.35C943.626 1045.47 943.85 1045.25 943.85 1044.97V1041.42C943.85 1041.15 943.626 1040.92 943.35 1040.92Z" fill="#5FC8FB"/>
<path d="M1236.91 1040.92H1153.2C1152.92 1040.92 1152.7 1041.15 1152.7 1041.42V1044.97C1152.7 1045.25 1152.92 1045.47 1153.2 1045.47H1236.91C1237.19 1045.47 1237.41 1045.25 1237.41 1044.97V1041.42C1237.41 1041.15 1237.19 1040.92 1236.91 1040.92Z" fill="#5FC8FB"/>
<path d="M1565.33 1037.55H1481.62C1481.34 1037.55 1481.12 1037.77 1481.12 1038.05V1041.6C1481.12 1041.88 1481.34 1042.1 1481.62 1042.1H1565.33C1565.61 1042.1 1565.83 1041.88 1565.83 1041.6V1038.05C1565.83 1037.77 1565.61 1037.55 1565.33 1037.55Z" fill="#5FC8FB"/>
<path d="M522.01 972.469H438.3C438.024 972.469 437.8 972.693 437.8 972.969V976.519C437.8 976.795 438.024 977.019 438.3 977.019H522.01C522.286 977.019 522.51 976.795 522.51 976.519V972.969C522.51 972.693 522.286 972.469 522.01 972.469Z" fill="#5FC8FB"/>
<path d="M1106.5 970.262H1022.79C1022.51 970.262 1022.29 970.486 1022.29 970.762V974.312C1022.29 974.588 1022.51 974.812 1022.79 974.812H1106.5C1106.78 974.812 1107 974.588 1107 974.312V970.762C1107 970.486 1106.78 970.262 1106.5 970.262Z" fill="#5FC8FB"/>
<path d="M1702.02 969.898H1618.31C1618.03 969.898 1617.81 970.122 1617.81 970.398V973.948C1617.81 974.225 1618.03 974.448 1618.31 974.448H1702.02C1702.3 974.448 1702.52 974.225 1702.52 973.948V970.398C1702.52 970.122 1702.3 969.898 1702.02 969.898Z" fill="#5FC8FB"/>
<path d="M1408.9 948.73H1325.19C1324.91 948.73 1324.69 948.954 1324.69 949.23V952.781C1324.69 953.057 1324.91 953.281 1325.19 953.281H1408.9C1409.18 953.281 1409.4 953.057 1409.4 952.781V949.23C1409.4 948.954 1409.18 948.73 1408.9 948.73Z" fill="#5FC8FB"/>
<defs>
<clipPath id="clip0_191_1554">
<rect width="1599" height="451" fill="white" transform="translate(275 443)"/>
</clipPath>
</defs>
</svg>
