<svg width="250" height="250" viewBox="0 0 250 250" fill="none" xmlns="http://www.w3.org/2000/svg">
<path d="M73.117 176.33C73.117 189.443 62.4866 200.073 49.3744 200.073C36.2616 200.073 25.6313 189.443 25.6313 176.33C25.6313 163.217 36.2616 152.588 49.3744 152.588C62.4866 152.588 73.117 163.217 73.117 176.33Z" stroke="black" stroke-width="7" stroke-miterlimit="10" stroke-linecap="round" stroke-linejoin="round"/>
<path d="M223.426 176.33C223.426 189.443 212.796 200.073 199.684 200.073C186.571 200.073 175.94 189.443 175.94 176.33C175.94 163.217 186.571 152.588 199.684 152.588C212.796 152.588 223.426 163.217 223.426 176.33Z" stroke="black" stroke-width="7" stroke-miterlimit="10" stroke-linecap="round" stroke-linejoin="round"/>
<path d="M199.682 152.59V152.595C199.662 152.595 199.653 152.595 199.643 152.59H199.682Z" stroke="black" stroke-width="7" stroke-miterlimit="10" stroke-linecap="round" stroke-linejoin="round"/>
<path d="M199.682 152.59V152.595C199.662 152.595 199.653 152.595 199.643 152.59C199.648 152.585 199.648 152.585 199.658 152.585C199.667 152.585 199.677 152.585 199.682 152.59Z" stroke="black" stroke-width="7" stroke-miterlimit="10" stroke-linecap="round" stroke-linejoin="round"/>
<path d="M145.756 177.121H175.956C175.855 174.118 176.323 171.124 177.335 168.296C180.681 158.99 189.766 152.585 199.658 152.585H225.15V128.81H215.405V119.015C215.405 114.841 212.02 111.457 207.846 111.457H172.9L154.77 140.739C152.832 144.899 148.662 147.565 144.077 147.565H93.655C87.529 147.565 82.5632 142.599 82.5632 136.473V111.458H25.2001C20.4457 111.458 16.5917 115.313 16.5917 120.067V152.585L49.3748 152.589C62.4851 152.589 73.115 163.219 73.115 176.33C73.115 176.593 73.1101 176.857 73.1004 177.121H102.64" stroke="black" stroke-width="7" stroke-miterlimit="10" stroke-linecap="round" stroke-linejoin="round"/>
<path d="M46.3231 152.586V152.597C49.3739 152.597 49.597 152.586 49.3739 152.586H46.3231Z" stroke="black" stroke-width="7" stroke-miterlimit="10" stroke-linecap="round" stroke-linejoin="round"/>
<path d="M175.957 175.509C175.938 176.046 175.938 176.584 175.957 177.121H175.942C175.883 176.579 175.893 176.042 175.957 175.509Z" stroke="black" stroke-width="7" stroke-miterlimit="10" stroke-linecap="round" stroke-linejoin="round"/>
<path d="M49.3749 152.585V152.589C48.7694 152.589 48.1737 152.614 47.5829 152.658C35.3026 153.571 25.6298 163.82 25.6298 176.33C25.6298 176.593 25.6347 176.857 25.6445 177.121H13.1299C8.57909 177.121 4.88281 173.424 4.88281 168.869V160.836C4.88281 156.281 8.57909 152.585 13.1299 152.585H49.3749Z" stroke="black" stroke-width="7" stroke-miterlimit="10" stroke-linecap="round" stroke-linejoin="round"/>
<path d="M245.116 160.836V168.869C245.116 173.424 241.42 177.121 236.869 177.121H223.412C223.422 176.857 223.427 176.593 223.427 176.33C223.427 163.219 212.797 152.589 199.682 152.589V152.585H236.869C241.42 152.585 245.116 156.281 245.116 160.836Z" stroke="black" stroke-width="7" stroke-miterlimit="10" stroke-linecap="round" stroke-linejoin="round"/>
<path d="M172.9 111.457L151.121 66.3185" stroke="black" stroke-width="7" stroke-miterlimit="10" stroke-linecap="round" stroke-linejoin="round"/>
<path d="M133.412 132.85V147.563H93.6779C87.5408 147.563 82.5657 142.589 82.5657 136.452V83.4816H94.7697C100.271 83.4816 104.73 87.9401 104.73 93.4362V117.534C104.73 121.762 108.156 125.19 112.385 125.19H125.756C129.985 125.19 133.412 128.621 133.412 132.85Z" stroke="black" stroke-width="7" stroke-miterlimit="10" stroke-linecap="round" stroke-linejoin="round"/>
<path d="M82.5647 111.458V60.4313C82.5647 54.6301 77.8621 49.9279 72.0613 49.9279C66.2605 49.9279 61.5584 54.6301 61.5584 60.4313V111.458H82.5647Z" stroke="black" stroke-width="7" stroke-miterlimit="10" stroke-linecap="round" stroke-linejoin="round"/>
<path d="M61.5579 71.0729L31.0848 111.458" stroke="black" stroke-width="7" stroke-miterlimit="10" stroke-linecap="round" stroke-linejoin="round"/>
<path d="M205.359 138.508V142.888C205.359 148.244 209.702 152.586 215.058 152.586H225.15V128.809H215.058C209.702 128.809 205.359 133.151 205.359 138.508Z" stroke="black" stroke-width="7" stroke-miterlimit="10" stroke-linecap="round" stroke-linejoin="round"/>
<path d="M167.389 120.358L143.035 105.178" stroke="black" stroke-width="7" stroke-miterlimit="10" stroke-linecap="round" stroke-linejoin="round"/>
<path d="M138.098 112.801L147.857 97.732" stroke="black" stroke-width="7" stroke-miterlimit="10" stroke-linecap="round" stroke-linejoin="round"/>
</svg>
