<svg width="250" height="250" viewBox="0 0 250 250" fill="none" xmlns="http://www.w3.org/2000/svg">
<path d="M68.0316 165.653C68.0316 177.486 58.4393 187.078 46.6073 187.078C34.7748 187.078 25.183 177.486 25.183 165.653C25.183 153.821 34.7748 144.229 46.6073 144.229C58.4393 144.229 68.0316 153.821 68.0316 165.653Z" stroke="black" stroke-width="7" stroke-miterlimit="10" stroke-linecap="round" stroke-linejoin="round"/>
<path d="M211.28 165.653C211.28 177.486 201.688 187.078 189.855 187.078C178.023 187.078 168.431 177.486 168.431 165.653C168.431 153.821 178.023 144.229 189.855 144.229C201.688 144.229 211.28 153.821 211.28 165.653Z" stroke="black" stroke-width="7" stroke-miterlimit="10" stroke-linecap="round" stroke-linejoin="round"/>
<path d="M140.534 165.652H168.432C168.432 153.821 178.021 144.232 189.858 144.232C201.689 144.232 211.279 153.821 211.279 165.652H238.793L245.116 154.593V145.339C245.116 143.074 244.848 140.823 244.325 138.636C242.504 130.745 237.02 123.587 230.599 118.88C226.532 115.889 221.907 113.744 216.996 112.571L187.167 105.418L160.747 78.4895C155.908 73.5605 150.135 69.6452 143.766 66.9724C137.397 64.2996 130.559 62.9229 123.652 62.9227H28.5883L34.3978 70.1419C36.4486 72.6892 36.1171 76.4021 33.6478 78.5462L8.56881 100.325V128.25L4.88278 135.198V154.593L12.2602 165.652H25.1801C25.1801 153.821 34.7748 144.232 46.6063 144.232C58.4373 144.232 68.032 153.821 68.032 165.652H97.5705" stroke="black" stroke-width="7" stroke-miterlimit="10" stroke-linecap="round" stroke-linejoin="round"/>
<path d="M244.277 138.445H224.159C223.234 138.446 222.318 138.264 221.463 137.909C220.609 137.555 219.832 137.035 219.179 136.38C218.522 135.728 218.002 134.951 217.647 134.096C217.293 133.241 217.111 132.325 217.114 131.399C217.114 129.001 218.329 126.765 220.346 125.472L230.599 118.88C237.038 123.602 242.354 130.592 244.277 138.445Z" stroke="black" stroke-width="7" stroke-miterlimit="10" stroke-linecap="round" stroke-linejoin="round"/>
<path d="M159.5 111.204C139.662 109.634 60.7689 103.2 41.6322 101.639C40.0248 101.508 39.3427 99.5288 40.5258 98.4327L57.9036 82.3331C58.9749 81.3404 60.3816 80.789 61.8421 80.7892H119.915C130.795 80.7892 141.148 85.4766 148.325 93.6529L161.037 108.133C162.134 109.383 161.158 111.335 159.5 111.204Z" stroke="black" stroke-width="7" stroke-miterlimit="10" stroke-linecap="round" stroke-linejoin="round"/>
<path d="M105.631 80.7891V106.852" stroke="black" stroke-width="7" stroke-miterlimit="10" stroke-linecap="round" stroke-linejoin="round"/>
<path d="M105.631 129.639H116.551" stroke="black" stroke-width="7" stroke-miterlimit="10" stroke-linecap="round" stroke-linejoin="round"/>
<path d="M40.0179 122.852H50.9388" stroke="black" stroke-width="7" stroke-miterlimit="10" stroke-linecap="round" stroke-linejoin="round"/>
</svg>
