<svg width="250" height="250" viewBox="0 0 250 250" fill="none" xmlns="http://www.w3.org/2000/svg">
<path d="M70.2019 148.485C70.2019 159.294 61.4402 168.056 50.6312 168.056C39.8231 168.056 31.0609 159.294 31.0609 148.485C31.0609 137.677 39.8231 128.915 50.6312 128.915C61.4402 128.915 70.2019 137.677 70.2019 148.485Z" stroke="black" stroke-width="7" stroke-miterlimit="10" stroke-linecap="round" stroke-linejoin="round"/>
<path d="M70.2019 156.313H183.711" stroke="black" stroke-width="7" stroke-miterlimit="10" stroke-linecap="round" stroke-linejoin="round"/>
<path d="M53.3993 145.718L47.8641 151.253" stroke="black" stroke-width="7" stroke-miterlimit="10" stroke-linecap="round" stroke-linejoin="round"/>
<path d="M222.852 148.485C222.852 159.294 214.091 168.056 203.282 168.056C192.474 168.056 183.711 159.294 183.711 148.485C183.711 137.677 192.474 128.915 203.282 128.915C214.091 128.915 222.852 137.677 222.852 148.485Z" stroke="black" stroke-width="7" stroke-miterlimit="10" stroke-linecap="round" stroke-linejoin="round"/>
<path d="M200.514 145.718L206.049 151.253" stroke="black" stroke-width="7" stroke-miterlimit="10" stroke-linecap="round" stroke-linejoin="round"/>
<path d="M31.0609 152.399L12.1787 147.004C9.72513 146.303 7.56672 144.822 6.03007 142.785C4.49342 140.748 3.66216 138.266 3.66209 135.714V112.34C3.66209 108.393 6.60203 105.063 10.5195 104.573L24.996 102.763C31.6007 101.938 38.0168 99.9951 43.9701 97.0182L62.5457 87.7307C70.1546 83.9261 78.5449 81.9455 87.052 81.9455H121.924C131.602 81.9455 141.078 84.7053 149.243 89.9006L179.797 109.344C179.797 109.344 215.278 109.344 237.413 119.624C242.895 122.17 246.337 127.732 246.337 133.776V146.77C246.337 152.829 242.832 156.313 238.509 156.313" stroke="black" stroke-width="7" stroke-miterlimit="10" stroke-linecap="round" stroke-linejoin="round"/>
<path d="M78.03 109.344H70.4803C65.2897 109.344 60.3117 107.282 56.6414 103.611L50.6312 97.6016" stroke="black" stroke-width="7" stroke-miterlimit="10" stroke-linecap="round" stroke-linejoin="round"/>
<path d="M179.797 109.344H93.6872" stroke="black" stroke-width="7" stroke-miterlimit="10" stroke-linecap="round" stroke-linejoin="round"/>
<path d="M85.8586 140.657H168.055" stroke="black" stroke-width="7" stroke-miterlimit="10" stroke-linecap="round" stroke-linejoin="round"/>
<path d="M3.66209 121.086H11.4902" stroke="black" stroke-width="7" stroke-miterlimit="10" stroke-linecap="round" stroke-linejoin="round"/>
<path d="M234.595 128.915H244.054" stroke="black" stroke-width="7" stroke-miterlimit="10" stroke-linecap="round" stroke-linejoin="round"/>
<path d="M109.343 109.344V81.9449" stroke="black" stroke-width="7" stroke-miterlimit="10" stroke-linecap="round" stroke-linejoin="round"/>
<path d="M64.3309 107.754L69.4266 85.2452" stroke="black" stroke-width="7" stroke-miterlimit="10" stroke-linecap="round" stroke-linejoin="round"/>
</svg>
