<svg width="250" height="250" viewBox="0 0 250 250" fill="none" xmlns="http://www.w3.org/2000/svg">
<path d="M175.421 183.872H152.736M223.596 163.871H244.256C244.809 163.871 245.338 164.09 245.729 164.481C246.119 164.871 246.338 165.401 246.338 165.953V181.79C246.338 182.064 246.285 182.334 246.18 182.587C246.075 182.839 245.922 183.069 245.729 183.262C245.535 183.456 245.306 183.609 245.053 183.714C244.8 183.818 244.53 183.872 244.256 183.872H229.266M69.385 163.871H180.262M21.5694 183.872H5.74416C5.19197 183.872 4.6624 183.653 4.27194 183.262C3.88148 182.872 3.66212 182.342 3.66212 181.79V165.953C3.66212 165.401 3.88148 164.871 4.27194 164.481C4.6624 164.09 5.19197 163.871 5.74416 163.871H27.0387M136.085 183.872H74.8543M10.9693 163.654V88.549M10.9693 71.5568V47.0996C10.9693 46.0961 11.3679 45.1337 12.0775 44.4241C12.7871 43.7146 13.7495 43.3159 14.753 43.3159H154.3C155.303 43.3159 156.266 43.7146 156.975 44.4241C157.685 45.1337 158.084 46.0961 158.084 47.0996V163.654M158.084 163.871V67.9801H188.71C190.883 67.98 193.014 68.5877 194.86 69.7343C196.707 70.881 198.196 72.5211 199.16 74.4694L216.387 109.292C216.698 109.921 217.18 110.451 217.776 110.821C218.372 111.192 219.061 111.388 219.763 111.388H231.201C235.526 111.388 239.031 114.894 239.031 119.218V163.871" stroke="black" stroke-width="7" stroke-miterlimit="10" stroke-linecap="round" stroke-linejoin="round"/>
<path d="M172.445 129.458H183.14M219.629 111.384H175.191C174.463 111.384 173.765 111.095 173.25 110.581C172.736 110.066 172.446 109.368 172.446 108.64V83.9766C172.446 83.6162 172.517 83.2594 172.655 82.9264C172.793 82.5935 172.995 82.291 173.25 82.0362C173.505 81.7813 173.808 81.5792 174.14 81.4413C174.473 81.3034 174.83 81.2324 175.191 81.2324H202.505L216.387 109.294C216.688 109.903 217.148 110.419 217.719 110.787C218.29 111.156 218.95 111.362 219.629 111.384ZM228.19 125.461H239.03V141.12H228.19C223.866 141.12 220.361 137.614 220.361 133.291C220.361 128.966 223.866 125.461 228.19 125.461Z" stroke="black" stroke-width="7" stroke-miterlimit="10" stroke-linecap="round" stroke-linejoin="round"/>
<path d="M48.2115 206.684C62.9255 206.684 74.8536 194.756 74.8536 180.041C74.8536 165.327 62.9255 153.399 48.2115 153.399C33.4975 153.399 21.5694 165.327 21.5694 180.041C21.5694 194.756 33.4975 206.684 48.2115 206.684Z" stroke="black" stroke-width="7" stroke-miterlimit="10" stroke-linecap="round" stroke-linejoin="round"/>
<path d="M48.2116 190.256C53.8528 190.256 58.4259 185.683 58.4259 180.042C58.4259 174.4 53.8528 169.827 48.2116 169.827C42.5703 169.827 37.9972 174.4 37.9972 180.042C37.9972 185.683 42.5703 190.256 48.2116 190.256Z" stroke="black" stroke-width="7" stroke-miterlimit="10" stroke-linecap="round" stroke-linejoin="round"/>
<path d="M201.788 206.684C216.502 206.684 228.43 194.756 228.43 180.041C228.43 165.327 216.502 153.399 201.788 153.399C187.074 153.399 175.146 165.327 175.146 180.041C175.146 194.756 187.074 206.684 201.788 206.684Z" stroke="black" stroke-width="7" stroke-miterlimit="10" stroke-linecap="round" stroke-linejoin="round"/>
<path d="M201.788 190.256C207.43 190.256 212.003 185.683 212.003 180.042C212.003 174.4 207.43 169.827 201.788 169.827C196.147 169.827 191.574 174.4 191.574 180.042C191.574 185.683 196.147 190.256 201.788 190.256Z" stroke="black" stroke-width="7" stroke-miterlimit="10" stroke-linecap="round" stroke-linejoin="round"/>
</svg>
