<svg width="250" height="250" viewBox="0 0 250 250" fill="none" xmlns="http://www.w3.org/2000/svg">
<path d="M222.798 182.247C222.798 196.081 211.583 207.295 197.75 207.295C183.916 207.295 172.702 196.081 172.702 182.247C172.702 168.413 183.916 157.199 197.75 157.199C211.583 157.199 222.798 168.413 222.798 182.247Z" stroke="black" stroke-width="7" stroke-miterlimit="10" stroke-linecap="round" stroke-linejoin="round"/>
<path d="M210.274 182.247C210.274 189.164 204.667 194.771 197.75 194.771C190.833 194.771 185.226 189.164 185.226 182.247C185.226 175.33 190.833 169.723 197.75 169.723C204.667 169.723 210.274 175.33 210.274 182.247Z" stroke="black" stroke-width="7" stroke-miterlimit="10" stroke-linecap="round" stroke-linejoin="round"/>
<path d="M66.6961 182.247C66.6961 196.081 55.4818 207.295 41.6483 207.295C27.8148 207.295 16.6 196.081 16.6 182.247C16.6 168.413 27.8148 157.199 41.6483 157.199C55.4818 157.199 66.6961 168.413 66.6961 182.247Z" stroke="black" stroke-width="7" stroke-miterlimit="10" stroke-linecap="round" stroke-linejoin="round"/>
<path d="M54.1717 182.247C54.1717 189.164 48.5648 194.771 41.6483 194.771C34.7314 194.771 29.124 189.164 29.124 182.247C29.124 175.33 34.7314 169.723 41.6483 169.723C48.5648 169.723 54.1717 175.33 54.1717 182.247Z" stroke="black" stroke-width="7" stroke-miterlimit="10" stroke-linecap="round" stroke-linejoin="round"/>
<path d="M241.974 176.055H222.025C222.539 178.079 222.799 180.159 222.798 182.247C222.798 184.493 222.497 186.669 221.943 188.74H241.974C244.384 188.74 246.337 186.787 246.337 184.378V180.418C246.337 178.008 244.384 176.055 241.974 176.055Z" stroke="black" stroke-width="7" stroke-miterlimit="10" stroke-linecap="round" stroke-linejoin="round"/>
<path d="M16.6005 182.247C16.6005 180.11 16.8696 178.036 17.373 176.055H8.02489C6.86785 176.055 5.75823 176.515 4.94008 177.333C4.12193 178.151 3.66224 179.26 3.66211 180.418V184.378C3.66224 185.535 4.12194 186.645 4.94011 187.463C5.75828 188.281 6.86789 188.74 8.02489 188.74H17.455C16.8874 186.623 16.6002 184.44 16.6005 182.247Z" stroke="black" stroke-width="7" stroke-miterlimit="10" stroke-linecap="round" stroke-linejoin="round"/>
<path d="M225.224 141.384C224.834 142.226 224.631 143.143 224.63 144.071V154.889C224.63 158.453 227.546 161.369 231.11 161.369H241.781C241.554 151.692 234.715 143.411 225.224 141.384Z" stroke="black" stroke-width="7" stroke-miterlimit="10" stroke-linecap="round" stroke-linejoin="round"/>
<path d="M123.645 155.25H128.234" stroke="black" stroke-width="7" stroke-miterlimit="10" stroke-linecap="round" stroke-linejoin="round"/>
<path d="M47.2299 90.147H48.6722" stroke="black" stroke-width="7" stroke-miterlimit="10" stroke-linecap="round" stroke-linejoin="round"/>
<path d="M77.7498 155.25H82.3386" stroke="black" stroke-width="7" stroke-miterlimit="10" stroke-linecap="round" stroke-linejoin="round"/>
<path d="M12.8413 141.384H7.47509C6.17025 144.517 5.49833 147.877 5.49805 151.271V157.199H12.8413C16.3032 157.199 19.1357 154.367 19.1357 150.905V147.678C19.1357 144.216 16.3032 141.384 12.8413 141.384Z" stroke="black" stroke-width="7" stroke-miterlimit="10" stroke-linecap="round" stroke-linejoin="round"/>
<path d="M178.932 126.226H173.429C169.968 126.226 167.136 129.059 167.136 132.521V138.022C167.136 141.484 169.968 144.316 173.429 144.316H178.932C182.394 144.316 185.226 141.484 185.226 138.022V132.521C185.226 129.059 182.394 126.226 178.932 126.226Z" stroke="black" stroke-width="7" stroke-miterlimit="10" stroke-linecap="round" stroke-linejoin="round"/>
<path d="M89.7107 84.4664C89.7107 107.53 71.014 126.227 47.9506 126.227C24.8867 126.227 6.18994 107.53 6.18994 84.4664C6.18994 61.403 24.8867 42.7063 47.9506 42.7063C71.014 42.7063 89.7107 61.403 89.7107 84.4664Z" stroke="black" stroke-width="7" stroke-miterlimit="10" stroke-linecap="round" stroke-linejoin="round"/>
<path d="M167.136 138.023V134.947L145.227 116.08C141.803 113.131 137.685 111.04 133.315 110.033C122.487 107.537 104.581 104.712 83.4661 106.431C76.1033 118.311 62.9544 126.227 47.9505 126.227C43.1821 126.229 38.4486 125.414 33.956 123.816C33.6355 124.252 33.3279 124.698 33.0336 125.152C32.4892 126 32.6625 127.124 33.4223 127.786L48.4544 140.881C48.8273 141.205 49.3049 141.384 49.7992 141.384H168.122C167.479 140.381 167.137 139.215 167.136 138.023Z" stroke="black" stroke-width="7" stroke-miterlimit="10" stroke-linecap="round" stroke-linejoin="round"/>
<path d="M83.4627 106.437C79.1073 113.458 72.7745 119.035 65.2596 122.469L68.4676 141.384H112.761V106.702C104.173 105.86 94.2351 105.558 83.4627 106.437Z" stroke="black" stroke-width="7" stroke-miterlimit="10" stroke-linecap="round" stroke-linejoin="round"/>
<path d="M47.9506 105.904V126.227" stroke="black" stroke-width="7" stroke-miterlimit="10" stroke-linecap="round" stroke-linejoin="round"/>
<path d="M60.6214 77.6461H35.2801C32.8905 77.6461 30.9354 79.6012 30.9354 81.9908V92.3775C30.9354 99.8184 37.0238 105.907 44.4647 105.907H51.4363C58.8777 105.907 64.9656 99.8184 64.9656 92.3775V81.9908C64.9656 79.6012 63.011 77.6461 60.6214 77.6461Z" stroke="black" stroke-width="7" stroke-miterlimit="10" stroke-linecap="round" stroke-linejoin="round"/>
<path d="M57.5667 77.646V64.5332" stroke="black" stroke-width="7" stroke-miterlimit="10" stroke-linecap="round" stroke-linejoin="round"/>
<path d="M38.3348 77.646V64.5332" stroke="black" stroke-width="7" stroke-miterlimit="10" stroke-linecap="round" stroke-linejoin="round"/>
<path d="M121.306 188.74H173.557C172.989 186.622 172.701 184.439 172.702 182.247C172.702 180.109 172.971 178.035 173.475 176.055H65.9227C66.4368 178.079 66.6965 180.159 66.6956 182.247C66.6956 184.493 66.3953 186.669 65.8406 188.74H104.216" stroke="black" stroke-width="7" stroke-miterlimit="10" stroke-linecap="round" stroke-linejoin="round"/>
<path d="M149.269 102.769C145.285 100.189 140.883 98.3234 136.26 97.2546C126.019 94.8933 109.1 92.096 88.8401 92.9783C84.9085 111.959 68.097 126.226 47.9506 126.226C38.3197 126.226 29.4579 122.957 22.393 117.481C22.2685 117.667 22.1391 117.849 22.0175 118.038L9.58934 137.352C6.91838 141.503 5.49812 146.334 5.49805 151.27V163.345C5.49805 165.63 5.80272 167.906 6.4038 170.111L8.0244 176.055H17.373C20.1294 165.216 29.9521 157.199 41.6483 157.199C53.3441 157.199 63.1663 165.216 65.9232 176.055H173.475C176.231 165.216 186.054 157.199 197.75 157.199C209.446 157.199 219.268 165.216 222.025 176.055H241.791V161.861C241.791 151.908 234.786 143.33 225.034 141.34L188.702 133.929C187.493 133.68 186.324 133.269 185.226 132.705V138.022C185.226 141.484 182.394 144.317 178.932 144.317H173.429C169.968 144.317 167.136 141.484 167.136 138.022V132.52C167.136 129.058 169.968 126.226 173.429 126.226H177.105L162.529 113.674" stroke="black" stroke-width="7" stroke-miterlimit="10" stroke-linecap="round" stroke-linejoin="round"/>
</svg>
