<svg width="250" height="250" viewBox="0 0 250 250" fill="none" xmlns="http://www.w3.org/2000/svg">
<path d="M67.1307 154.898C67.1307 165.619 58.4393 174.31 47.7181 174.31C36.997 174.31 28.3056 165.619 28.3056 154.898C28.3056 144.176 36.997 135.485 47.7181 135.485C58.4393 135.485 67.1307 144.176 67.1307 154.898Z" stroke="black" stroke-width="7" stroke-miterlimit="10" stroke-linecap="round" stroke-linejoin="round"/>
<path d="M207.136 154.898C207.136 165.619 198.445 174.31 187.724 174.31C177.002 174.31 168.311 165.619 168.311 154.898C168.311 144.176 177.002 135.485 187.724 135.485C198.445 135.485 207.136 144.176 207.136 154.898Z" stroke="black" stroke-width="7" stroke-miterlimit="10" stroke-linecap="round" stroke-linejoin="round"/>
<path d="M140.692 154.898H168.311C168.311 144.175 177.001 135.484 187.724 135.484C198.447 135.484 207.138 144.175 207.138 154.898H239.633C242.66 154.898 245.116 152.442 245.116 149.415V133.463C245.116 127.559 242.021 122.086 236.953 119.063C215.502 106.265 173.452 106.265 173.452 106.265H62.5584C59.8533 106.265 57.4071 104.664 56.3231 102.183L53.3104 95.2839C37.8612 95.2839 22.954 101.592 13.8574 106.392C11.1502 107.816 8.88337 109.951 7.30168 112.569C5.71999 115.187 4.88359 118.187 4.88281 121.246V149.415C4.88281 152.442 7.33935 154.898 10.3662 154.898H28.3056C28.3056 144.175 36.997 135.484 47.7196 135.484C58.4373 135.484 67.1287 144.175 67.1287 154.898H97.5964" stroke="black" stroke-width="7" stroke-miterlimit="10" stroke-linecap="round" stroke-linejoin="round"/>
<path d="M56.3231 102.185L53.3089 95.2818V95.125C53.3089 86.4322 60.4207 79.3204 69.1135 79.3204L80.9797 106.266H62.5598C61.236 106.266 59.9408 105.88 58.8331 105.155C57.7253 104.43 56.853 103.398 56.3231 102.185Z" stroke="black" stroke-width="7" stroke-miterlimit="10" stroke-linecap="round" stroke-linejoin="round"/>
<path d="M140.848 106.267L125.489 75.691H133.197C136.096 75.691 138.96 76.3312 141.584 77.5658C144.207 78.8003 146.526 80.5989 148.374 82.8331L170.117 106.267H140.848Z" stroke="black" stroke-width="7" stroke-miterlimit="10" stroke-linecap="round" stroke-linejoin="round"/>
<path d="M88.8669 125.132H97.1677" stroke="black" stroke-width="7" stroke-miterlimit="10" stroke-linecap="round" stroke-linejoin="round"/>
<path d="M4.88281 131.724H16.1132" stroke="black" stroke-width="7" stroke-miterlimit="10" stroke-linecap="round" stroke-linejoin="round"/>
<path d="M245.107 133.042H226.103C222.519 133.042 219.267 130.948 217.783 127.686L212.353 110.347C221.293 112.237 230.16 115.005 236.952 119.063C241.899 122.012 244.97 127.3 245.107 133.042Z" stroke="black" stroke-width="7" stroke-miterlimit="10" stroke-linecap="round" stroke-linejoin="round"/>
</svg>
