<svg width="250" height="250" viewBox="0 0 250 250" fill="none" xmlns="http://www.w3.org/2000/svg">
<path d="M84.7305 159.285H109.718M222.669 159.285H245.117V129.526C232.589 118.042 216.211 111.671 199.215 111.671H41.645C21.3418 111.671 4.88281 128.13 4.88281 148.433V159.285H43.6699M153.664 159.285H181.883" stroke="black" stroke-width="7" stroke-miterlimit="10" stroke-linecap="round" stroke-linejoin="round"/>
<path d="M202.23 178.152C213.017 178.152 221.762 169.408 221.762 158.621C221.762 147.834 213.017 139.09 202.23 139.09C191.444 139.09 182.699 147.834 182.699 158.621C182.699 169.408 191.444 178.152 202.23 178.152Z" stroke="black" stroke-width="7" stroke-miterlimit="10" stroke-linecap="round" stroke-linejoin="round"/>
<path d="M64.2852 178.152C75.072 178.152 83.8164 169.408 83.8164 158.621C83.8164 147.834 75.072 139.09 64.2852 139.09C53.4983 139.09 44.7539 147.834 44.7539 158.621C44.7539 169.408 53.4983 178.152 64.2852 178.152Z" stroke="black" stroke-width="7" stroke-miterlimit="10" stroke-linecap="round" stroke-linejoin="round"/>
<path d="M151.099 71.855C132.151 71.9505 113.663 77.693 97.9951 88.3486C87.6162 95.4063 92.71 111.671 105.261 111.671" stroke="black" stroke-width="7" stroke-miterlimit="10" stroke-linecap="round" stroke-linejoin="round"/>
<path d="M194.394 111.671L179.648 87.123C176.85 82.4636 172.892 78.608 168.162 75.9312C163.431 73.2544 158.088 71.8476 152.653 71.8477H119.124C88.3857 71.8477 59.5356 86.6763 41.645 111.671M142.822 74.9639V111.671M243.666 159.285H225.518V149.328C225.518 143.934 229.89 139.562 235.284 139.562H243.116M155.311 135.478H146.887M7.9707 140.417H19.4321" stroke="black" stroke-width="7" stroke-miterlimit="10" stroke-linecap="round" stroke-linejoin="round"/>
</svg>
