<svg width="104" height="105" fill="none" xmlns="http://www.w3.org/2000/svg"><path d="m0 66.468 14.009-52.42L66.339 0 67 2.194l-13.703 51.21L2.625 67 0 66.468ZM15.973 16 3.092 64.387l48.305-12.903L64.28 3.097 15.973 16Z" fill="#787878"/><path d="m90.15 91-2.227-.566L51 52.89 64.5 1.617 66.09 0 104 38.434 90.15 91ZM53.576 52.194l34.983 35.572 12.722-48.507L66.297 3.687 53.576 52.194Z" fill="#787878"/><path d="M38.037 105 0 66.456l1.999-1.798L52.315 51l37.077 37.572.608 2.316L38.037 105ZM3.613 66.716l35.175 35.643 47.966-12.961L51.58 53.754 3.613 66.716Z" fill="#787878"/></svg>