<svg width="30" height="30" viewBox="0 0 30 30" fill="none" xmlns="http://www.w3.org/2000/svg">
<g clip-path="url(#clip0_2671_3667)">
<g clip-path="url(#clip1_2671_3667)">
<path d="M29.6766 16.3492L28.1895 15.8664C28.0062 15.1671 27.728 14.4962 27.3627 13.8725L28.0728 12.4791C28.1648 12.298 28.1303 12.0783 27.9867 11.9342L26.3988 10.3463C26.3288 10.2762 26.2385 10.2302 26.1407 10.2147C26.0429 10.1992 25.9427 10.2151 25.8545 10.2602L24.4611 10.9703C23.837 10.6056 23.1662 10.3275 22.4672 10.1436L21.9844 8.6582C21.9537 8.56396 21.894 8.48184 21.8138 8.42363C21.7336 8.36542 21.637 8.33411 21.5379 8.33418H19.2926C19.0893 8.33418 18.9094 8.46484 18.8461 8.6582L18.3627 10.1436C17.6638 10.3274 16.9932 10.6056 16.3693 10.9703L14.9766 10.2602C14.8883 10.2151 14.788 10.1992 14.6901 10.2147C14.5922 10.2301 14.5017 10.2762 14.4316 10.3463L12.8437 11.9342C12.7737 12.0043 12.7276 12.0947 12.7121 12.1926C12.6967 12.2905 12.7126 12.3908 12.7576 12.4791L13.2762 13.4986C13.0658 13.4793 12.8525 13.4693 12.6375 13.4693H7.01836C3.14824 13.4693 0 16.6176 0 20.4877V26.0383C0 26.8463 0.657422 27.5043 1.46602 27.5043H18.1875C18.4512 27.5043 18.699 27.434 18.9129 27.3115C18.9564 27.3713 19.0134 27.4199 19.0793 27.4534C19.1452 27.4869 19.2181 27.5043 19.292 27.5043H21.5373C21.7406 27.5043 21.9205 27.3736 21.9838 27.1803L22.4666 25.6949C23.166 25.5116 23.8371 25.2334 24.4611 24.8682L25.8545 25.5783C26.0355 25.6703 26.2553 25.6357 26.3994 25.4922L27.9873 23.9043C28.0574 23.8342 28.1035 23.7437 28.1189 23.6458C28.1344 23.5479 28.1185 23.4477 28.0734 23.3594L27.3633 21.966C27.7281 21.342 28.0063 20.6712 28.19 19.9721L29.6771 19.4893C29.7714 19.4586 29.8535 19.3989 29.9117 19.3187C29.9699 19.2385 30.0012 19.1419 30.0012 19.0428V16.7957C30.001 16.6966 29.9695 16.6 29.9112 16.5198C29.853 16.4397 29.7708 16.3799 29.6766 16.3492ZM10.8621 20.0512L9.82617 21.8863L8.79082 20.0512L9.31699 14.408H10.3371L10.8621 20.0512ZM18.1875 26.5656H15.0791V23.115C15.0791 22.8561 14.8693 22.6457 14.6098 22.6457C14.3502 22.6457 14.1404 22.8555 14.1404 23.115V26.5656H5.51191V23.115C5.51191 22.8561 5.30215 22.6457 5.04258 22.6457C4.78301 22.6457 4.57324 22.8555 4.57324 23.115V26.5656H1.46484C1.17422 26.5656 0.9375 26.3289 0.9375 26.0383V20.4877C0.9375 17.135 3.66504 14.408 7.01719 14.408H8.37422L7.84219 20.1104C7.83339 20.2056 7.85383 20.3012 7.90078 20.3846L9.41719 23.0723C9.50039 23.2199 9.65625 23.3107 9.82559 23.3107C9.99492 23.3107 10.1508 23.2193 10.234 23.0723L11.7504 20.3846C11.7973 20.3012 11.8178 20.2056 11.809 20.1104L11.2787 14.408H12.6357C14.0238 14.408 15.3041 14.8762 16.3289 15.6625C16.3488 15.683 16.3711 15.7018 16.3957 15.7188C16.4039 15.7246 16.4121 15.7293 16.4203 15.734C17.8172 16.849 18.7143 18.5658 18.7143 20.4883V26.0389C18.7148 26.3295 18.4781 26.5656 18.1875 26.5656ZM17.3115 15.2588C18.0844 14.3576 19.2158 13.8297 20.4146 13.8297C22.6687 13.8297 24.5033 15.6637 24.5033 17.9178C24.5033 20.173 22.6693 22.0076 20.4146 22.0076C20.1598 22.0076 19.9049 21.983 19.6529 21.935V20.4871C19.6529 18.4123 18.7477 16.5449 17.3115 15.2588ZM29.0625 18.7018L27.6516 19.1594C27.5741 19.1844 27.5044 19.2292 27.4495 19.2893C27.3945 19.3494 27.3561 19.4227 27.3381 19.5021C27.162 20.2798 26.8545 21.0217 26.4287 21.6959C26.3853 21.7647 26.3606 21.8436 26.3569 21.9248C26.3532 22.0061 26.3707 22.0869 26.4076 22.1594L27.0814 23.4812L25.9758 24.5869L24.6539 23.9131C24.5815 23.876 24.5006 23.8584 24.4194 23.8621C24.3381 23.8658 24.2592 23.8906 24.1904 23.9342C23.5163 24.3599 22.7743 24.6675 21.9967 24.8436C21.9174 24.8616 21.8441 24.8999 21.784 24.9547C21.7239 25.0096 21.6791 25.0791 21.6539 25.1564L21.1963 26.5656H19.6324L19.5943 26.4479C19.6324 26.3178 19.6529 26.1807 19.6529 26.0383V22.8877C19.9049 22.9264 20.1598 22.9469 20.4146 22.9469C23.1867 22.9469 25.4414 20.691 25.4414 17.9184C25.4414 15.1469 23.1861 12.8916 20.4146 12.8916C18.9258 12.8916 17.5225 13.5525 16.5715 14.6799C15.9182 14.2353 15.1943 13.9046 14.4305 13.702C14.427 13.6943 14.424 13.6867 14.4205 13.6791L13.7479 12.3561L14.8535 11.2504L16.176 11.9242C16.2484 11.9611 16.3291 11.9785 16.4102 11.9748C16.4913 11.9711 16.5701 11.9464 16.6389 11.9031C17.3162 11.4766 18.0539 11.1701 18.8314 10.9937C18.9106 10.9759 18.9837 10.9377 19.0437 10.8831C19.1037 10.8284 19.1485 10.7592 19.1736 10.682L19.633 9.27168H21.1969L21.6545 10.6809C21.6795 10.7583 21.7242 10.8279 21.7844 10.8828C21.8445 10.9377 21.9179 10.9759 21.9973 10.9937C22.7754 11.1701 23.5137 11.476 24.191 11.9031C24.2598 11.9465 24.3387 11.9713 24.42 11.975C24.5012 11.9787 24.582 11.9612 24.6545 11.9242L25.9764 11.2504L27.082 12.3561L26.4082 13.6779C26.3712 13.7504 26.3537 13.8312 26.3574 13.9125C26.3611 13.9937 26.3859 14.0726 26.4293 14.1414C26.855 14.8156 27.1626 15.5575 27.3387 16.3352C27.3567 16.4146 27.3951 16.4879 27.4501 16.548C27.505 16.6081 27.5747 16.6529 27.6521 16.6779L29.0631 17.1355V18.7018H29.0625ZM9.82617 12.6789C12.634 12.6789 14.918 10.3943 14.918 7.58594C14.918 4.77812 12.634 2.49414 9.82617 2.49414C7.01894 2.49414 4.73438 4.77812 4.73438 7.58594C4.73438 10.3943 7.01894 12.6789 9.82617 12.6789ZM9.82617 3.43281C12.116 3.43281 13.9793 5.29609 13.9793 7.58594C13.9793 9.87695 12.116 11.7408 9.82617 11.7408C7.53633 11.7408 5.67305 9.87695 5.67305 7.58594C5.67305 5.29551 7.53633 3.43281 9.82617 3.43281Z" fill="black"/>
</g>
</g>
<defs>
<clipPath id="clip0_2671_3667">
<rect width="30" height="30" fill="white"/>
</clipPath>
<clipPath id="clip1_2671_3667">
<rect width="30" height="30" fill="white"/>
</clipPath>
</defs>
</svg>
