<svg width="30" height="30" viewBox="0 0 30 30" fill="none" xmlns="http://www.w3.org/2000/svg">
<g clip-path="url(#clip0_2671_3668)">
<g clip-path="url(#clip1_2671_3668)">
<path d="M29.2935 26.9474L26.0426 23.6965C25.7715 23.4254 25.3813 23.3451 25.0389 23.454C24.9064 23.2768 24.8921 23.0414 25.0088 22.8451C25.56 21.9185 25.8513 20.8559 25.8513 19.7723C25.8513 17.2304 24.2675 15.0516 22.0349 14.1705V11.1185C23.4947 11.054 24.8861 10.6472 26.0811 9.92988C26.1418 9.89343 26.192 9.84188 26.2269 9.78025C26.2618 9.71862 26.2801 9.64902 26.2801 9.5782V6.64629L27.9192 6.20713V7.40262L27.1487 8.17318C27.0718 8.25009 27.0286 8.3544 27.0286 8.46316V11.1482C27.0284 11.2479 27.0579 11.3455 27.1133 11.4285C27.1688 11.5115 27.2476 11.576 27.3399 11.614C27.432 11.6523 27.5334 11.6624 27.6312 11.6429C27.729 11.6235 27.8188 11.5754 27.8892 11.5047L28.3294 11.0646L28.7693 11.5045C28.8396 11.5752 28.9295 11.6234 29.0273 11.643C29.1252 11.6625 29.2266 11.6524 29.3187 11.614C29.411 11.5761 29.4899 11.5115 29.5454 11.4285C29.6008 11.3456 29.6304 11.248 29.6302 11.1482V8.46316C29.6302 8.3544 29.5869 8.25009 29.51 8.17318L28.7395 7.40262V5.89606C28.8068 5.83108 28.8603 5.75324 28.8969 5.66717C28.9335 5.5811 28.9524 5.48855 28.9525 5.39502C28.9523 5.24151 28.9016 5.09233 28.8081 4.97055C28.7147 4.84876 28.5837 4.76115 28.4355 4.72125L22.0842 3.01945C22.0676 3.015 22.0513 3.01178 22.0349 3.00779V0.703125C22.0349 0.594345 21.9917 0.49002 21.9148 0.413101C21.8379 0.336182 21.7336 0.292969 21.6248 0.292969H0.644531C0.535751 0.292969 0.431426 0.336182 0.354507 0.413101C0.277588 0.49002 0.234375 0.594345 0.234375 0.703125V27.4905C0.234375 27.5993 0.277588 27.7037 0.354507 27.7806C0.431426 27.8575 0.535751 27.9007 0.644531 27.9007H21.6248C21.6787 27.9007 21.7321 27.8901 21.7818 27.8695C21.8316 27.8489 21.8768 27.8186 21.9149 27.7805C21.953 27.7425 21.9832 27.6972 22.0038 27.6475C22.0244 27.5977 22.035 27.5444 22.035 27.4905V25.3744C22.3361 25.2564 22.6271 25.114 22.9052 24.9489C23.1012 24.8324 23.3363 24.8465 23.5135 24.9786C23.4823 25.0764 23.4664 25.1784 23.4663 25.2811C23.4663 25.5464 23.5693 25.7955 23.7565 25.9827L27.0074 29.2336C27.3225 29.5488 27.7365 29.7063 28.1505 29.7063C28.5645 29.7063 28.9784 29.5488 29.2936 29.2336C29.9238 28.6032 29.9238 27.5777 29.2936 26.9474H29.2935ZM25.4599 9.34172C24.3243 9.97477 23.0036 10.3083 21.6248 10.3083C20.2461 10.3083 18.9254 9.97477 17.7898 9.34172V6.86613L21.1653 7.77059C21.322 7.8126 21.4734 7.83363 21.6248 7.83363C21.7762 7.83363 21.9275 7.8126 22.0842 7.77059L25.4599 6.86607V9.34172ZM28.8099 10.385L28.6194 10.1945C28.5393 10.1145 28.4344 10.0744 28.3294 10.0744C28.2244 10.0744 28.1194 10.1145 28.0394 10.1945L27.8489 10.385V8.63309L28.3294 8.15256L28.81 8.63309V10.385H28.8099ZM27.7806 5.39502L21.8719 6.97828C21.6987 7.02475 21.5508 7.02469 21.3776 6.97828L15.4689 5.39502L21.3776 3.81176C21.5509 3.76535 21.6987 3.76535 21.8719 3.81176L27.7806 5.39502H27.7806ZM21.2146 27.0803H1.05463V1.11328H21.2146V3.00779C21.1982 3.01178 21.1819 3.015 21.1653 3.01945L14.814 4.72125C14.5096 4.80287 14.2971 5.0799 14.2971 5.39502C14.2971 5.71014 14.5097 5.98723 14.8141 6.06879L16.9695 6.64635V9.57826C16.9695 9.64907 16.9879 9.71868 17.0227 9.7803C17.0576 9.84193 17.1079 9.89348 17.1686 9.92994C18.3635 10.6472 19.7548 11.0541 21.2147 11.1185V13.9137C20.7617 13.8069 20.2977 13.753 19.8323 13.7532C16.5134 13.7532 13.8132 16.4534 13.8132 19.7724C13.8132 23.0914 16.5134 25.7915 19.8323 25.7915C20.3001 25.7915 20.7639 25.737 21.2147 25.6308V27.0804L21.2146 27.0803ZM22.4857 24.2439C21.6859 24.7196 20.7683 24.9711 19.8322 24.9711C16.9656 24.9711 14.6334 22.639 14.6334 19.7723C14.6334 16.9057 16.9656 14.5735 19.8322 14.5735C22.6989 14.5735 25.031 16.9057 25.031 19.7723C25.031 20.7084 24.7795 21.626 24.3038 22.4258C24.0112 22.9176 24.0496 23.5079 24.3859 23.95L24.0099 24.326C23.5678 23.9897 22.9775 23.9513 22.4857 24.2439ZM28.7134 28.6536C28.4029 28.964 27.8978 28.964 27.5873 28.6536L24.3364 25.4027C24.293 25.3593 24.2865 25.3079 24.2865 25.2812C24.2865 25.2544 24.293 25.203 24.3364 25.1596L25.2194 24.2767C25.2529 24.2432 25.2969 24.2264 25.341 24.2264C25.385 24.2264 25.429 24.2432 25.4625 24.2766L28.7134 27.5275C29.0238 27.838 29.0238 28.3431 28.7134 28.6536ZM19.8322 15.0699C17.2393 15.0699 15.1298 17.1795 15.1298 19.7724C15.1298 22.3654 17.2393 24.4748 19.8322 24.4748C22.4252 24.4748 24.5347 22.3654 24.5347 19.7724C24.5347 17.1795 22.4252 15.0699 19.8322 15.0699ZM19.8322 23.6545C17.6916 23.6545 15.9501 21.913 15.9501 19.7724C15.9501 17.6318 17.6916 15.8902 19.8322 15.8902C21.9728 15.8902 23.7144 17.6317 23.7144 19.7724C23.7144 21.9131 21.9728 23.6545 19.8322 23.6545ZM12.6466 21.7426C12.6466 21.8514 12.6034 21.9557 12.5265 22.0326C12.4495 22.1096 12.3452 22.1528 12.2364 22.1528H7.7182C7.60942 22.1528 7.5051 22.1096 7.42818 22.0326C7.35126 21.9557 7.30805 21.8514 7.30805 21.7426C7.30805 21.6338 7.35126 21.5295 7.42818 21.4526C7.5051 21.3757 7.60942 21.3325 7.7182 21.3325H12.2364C12.3452 21.3325 12.4495 21.3757 12.5265 21.4526C12.6034 21.5295 12.6466 21.6338 12.6466 21.7426ZM13.8592 23.4564C13.8592 23.5652 13.816 23.6695 13.7391 23.7464C13.6622 23.8234 13.5579 23.8666 13.4491 23.8666H7.7182C7.60942 23.8666 7.5051 23.8234 7.42818 23.7464C7.35126 23.6695 7.30805 23.5652 7.30805 23.4564C7.30805 23.3476 7.35126 23.2433 7.42818 23.1664C7.5051 23.0895 7.60942 23.0463 7.7182 23.0463H13.4491C13.5579 23.0463 13.6622 23.0895 13.7391 23.1664C13.816 23.2433 13.8592 23.3476 13.8592 23.4564ZM3.78908 9.96861L3.51973 10.3703C3.3477 10.6267 3.38139 10.9713 3.59971 11.1894L4.50363 12.0935C4.72195 12.3119 5.06643 12.3455 5.32295 12.1734L5.72461 11.904L6.51861 12.233L6.61213 12.7074C6.67184 13.0103 6.93926 13.2302 7.24799 13.2302H8.52645C8.83524 13.2302 9.1026 13.0103 9.16231 12.7075L9.25588 12.233L10.0498 11.9041L10.4514 12.1734C10.7078 12.3455 11.0525 12.3119 11.2707 12.0935L12.1746 11.1895C12.393 10.9712 12.4267 10.6267 12.2547 10.3703L11.9854 9.96861L12.3143 9.17461L12.7887 9.08109C13.0916 9.02133 13.3115 8.75396 13.3115 8.44518V7.16672C13.3115 6.85799 13.0917 6.59057 12.7888 6.53086L12.3144 6.43729L11.9854 5.64328L12.2548 5.24168C12.4268 4.98527 12.3931 4.64074 12.1748 4.42242L11.2709 3.5185C11.0525 3.30018 10.7081 3.26643 10.4516 3.43846L10.0499 3.70781L9.25594 3.37887L9.16236 2.90443C9.10266 2.60156 8.83524 2.38172 8.52651 2.38172H7.24805C6.93932 2.38172 6.6719 2.60156 6.61219 2.90443L6.51867 3.37887L5.72467 3.70781L5.32295 3.4384C5.06654 3.26654 4.72201 3.30018 4.50381 3.51844L3.59982 4.42242C3.38145 4.6408 3.34787 4.98539 3.51984 5.24162L3.7892 5.64328L3.46025 6.43729L2.98588 6.53086C2.68295 6.59057 2.46311 6.85799 2.46311 7.16672V8.44518C2.46311 8.75396 2.68295 9.02133 2.98582 9.08104L3.46025 9.17461L3.7892 9.96861H3.78908ZM3.2833 7.30834L3.83432 7.19971C3.9006 7.18664 3.96263 7.15741 4.0149 7.1146C4.06716 7.07179 4.10804 7.01673 4.13391 6.95432L4.63102 5.75443C4.65687 5.692 4.6669 5.62416 4.66022 5.55692C4.65355 5.48968 4.63037 5.42513 4.59275 5.369L4.27986 4.90242L4.98363 4.19865L5.45016 4.51154C5.50627 4.5492 5.57082 4.5724 5.63807 4.57908C5.70531 4.58575 5.77317 4.5757 5.83559 4.5498L7.03547 4.0527C7.09789 4.02684 7.15296 3.98597 7.19577 3.9337C7.23858 3.88143 7.26781 3.8194 7.28086 3.75311L7.38949 3.20209H8.38482L8.49346 3.75311C8.50653 3.81939 8.53577 3.88142 8.57858 3.93368C8.62138 3.98594 8.67644 4.02683 8.73885 4.0527L9.93873 4.5498C10.0012 4.57565 10.069 4.58569 10.1362 4.57901C10.2035 4.57234 10.268 4.54916 10.3242 4.51154L10.7907 4.19871L11.4945 4.90248L11.1816 5.369C11.144 5.42512 11.1208 5.48967 11.1141 5.55692C11.1074 5.62416 11.1175 5.69201 11.1434 5.75443L11.6405 6.95432C11.6663 7.01674 11.7072 7.0718 11.7595 7.11461C11.8117 7.15743 11.8738 7.18666 11.9401 7.19971L12.4911 7.30834V8.30367L11.9401 8.4123C11.8738 8.42537 11.8117 8.4546 11.7595 8.49741C11.7072 8.54022 11.6663 8.59528 11.6405 8.6577L11.1434 9.85758C11.1175 9.92001 11.1075 9.98785 11.1142 10.0551C11.1208 10.1223 11.144 10.1869 11.1816 10.243L11.4945 10.7096L10.7907 11.4134L10.3241 11.1005C10.268 11.0629 10.2034 11.0397 10.1362 11.033C10.0689 11.0263 10.0011 11.0364 9.93867 11.0623L8.73879 11.5594C8.67638 11.5852 8.62132 11.6261 8.5785 11.6783C8.53569 11.7306 8.50646 11.7926 8.4934 11.8589L8.38477 12.4099H7.38943L7.2808 11.8589C7.26774 11.7926 7.2385 11.7306 7.19569 11.6783C7.15288 11.6261 7.09782 11.5852 7.03541 11.5593L5.83553 11.0623C5.77311 11.0364 5.70525 11.0263 5.63801 11.033C5.57077 11.0397 5.50621 11.0629 5.4501 11.1005L4.98357 11.4134L4.2798 10.7096L4.5927 10.243C4.63031 10.1869 4.65349 10.1223 4.66016 10.0551C4.66684 9.98785 4.65681 9.92001 4.63096 9.85758L4.13385 8.6577C4.10798 8.59528 4.0671 8.54023 4.01484 8.49742C3.96257 8.45461 3.90054 8.42537 3.83426 8.4123L3.28324 8.30367L3.2833 7.30834ZM7.88725 10.7875C9.53127 10.7875 10.8688 9.45 10.8688 7.80598C10.8688 6.16195 9.53127 4.82449 7.88725 4.82449C6.24322 4.82449 4.90576 6.16201 4.90576 7.80598C4.90576 9.44994 6.24328 10.7875 7.88725 10.7875ZM7.88725 5.64475C9.07893 5.64475 10.0485 6.61424 10.0485 7.80592C10.0485 8.9976 9.07899 9.96715 7.88725 9.96715C6.69551 9.96715 5.72607 8.9976 5.72607 7.80592C5.72607 6.61424 6.69557 5.64475 7.88725 5.64475ZM5.96783 20.9441H3.4776C3.36882 20.9441 3.26449 20.9873 3.18757 21.0642C3.11065 21.1412 3.06744 21.2455 3.06744 21.3543V23.8445C3.06744 23.9533 3.11065 24.0576 3.18757 24.1345C3.26449 24.2114 3.36882 24.2546 3.4776 24.2546H5.96783C6.07661 24.2546 6.18094 24.2114 6.25786 24.1345C6.33478 24.0576 6.37799 23.9533 6.37799 23.8445V21.3543C6.37799 21.2455 6.33478 21.1412 6.25786 21.0642C6.18094 20.9873 6.07661 20.9441 5.96783 20.9441ZM5.55768 23.4343H3.88775V21.7644H5.55768V23.4343ZM12.1507 19.2742H6.74074C6.63196 19.2742 6.52764 19.231 6.45072 19.154C6.3738 19.0771 6.33059 18.9728 6.33059 18.864C6.33059 18.7552 6.3738 18.6509 6.45072 18.574C6.52764 18.4971 6.63196 18.4539 6.74074 18.4539H12.1507C12.2595 18.4539 12.3638 18.4971 12.4407 18.574C12.5176 18.6509 12.5609 18.7552 12.5609 18.864C12.5609 18.9728 12.5176 19.0771 12.4407 19.154C12.3638 19.231 12.2595 19.2742 12.1507 19.2742ZM4.99471 18.4539C5.10349 18.4539 5.20781 18.4971 5.28473 18.574C5.36165 18.6509 5.40486 18.7552 5.40486 18.864C5.40486 18.9728 5.36165 19.0771 5.28473 19.154C5.20781 19.231 5.10349 19.2742 4.99471 19.2742H3.4776C3.36882 19.2742 3.26449 19.231 3.18757 19.154C3.11065 19.0771 3.06744 18.9728 3.06744 18.864C3.06744 18.7552 3.11065 18.6509 3.18757 18.574C3.26449 18.4971 3.36882 18.4539 3.4776 18.4539H4.99471ZM3.4776 14.5866H13.6652C13.774 14.5866 13.8783 14.6298 13.9553 14.7068C14.0322 14.7837 14.0754 14.888 14.0754 14.9968C14.0754 15.1056 14.0322 15.2099 13.9553 15.2868C13.8783 15.3637 13.774 15.4069 13.6652 15.4069H3.47754C3.36876 15.4069 3.26443 15.3637 3.18752 15.2868C3.1106 15.2099 3.06738 15.1056 3.06738 14.9968C3.06738 14.888 3.1106 14.7837 3.18752 14.7068C3.26443 14.6298 3.36882 14.5866 3.4776 14.5866ZM12.7587 17.3405H3.47754C3.36876 17.3405 3.26443 17.2973 3.18752 17.2204C3.1106 17.1435 3.06738 17.0392 3.06738 16.9304C3.06738 16.8216 3.1106 16.7173 3.18752 16.6403C3.26443 16.5634 3.36876 16.5202 3.47754 16.5202H12.7586C12.8674 16.5202 12.9717 16.5634 13.0486 16.6403C13.1256 16.7173 13.1688 16.8216 13.1688 16.9304C13.1688 17.0392 13.1256 17.1435 13.0486 17.2204C12.9717 17.2973 12.8675 17.3405 12.7587 17.3405Z" fill="black"/>
</g>
</g>
<defs>
<clipPath id="clip0_2671_3668">
<rect width="30" height="30" fill="white"/>
</clipPath>
<clipPath id="clip1_2671_3668">
<rect width="30" height="30" fill="white"/>
</clipPath>
</defs>
</svg>
