<svg width="30" height="30" viewBox="0 0 30 30" fill="none" xmlns="http://www.w3.org/2000/svg">
<g clip-path="url(#clip0_2671_3666)">
<path fill-rule="evenodd" clip-rule="evenodd" d="M8.23341 4.35692C8.12259 4.16486 8.18835 3.92012 8.38029 3.80852C8.47252 3.75542 8.58208 3.74112 8.68485 3.76876C8.78763 3.7964 8.87523 3.86373 8.92839 3.95594L9.51783 4.97666C9.67275 5.24504 9.47703 5.57846 9.17073 5.57846C9.10021 5.5786 9.03092 5.56014 8.96982 5.52494C8.90872 5.48975 8.85798 5.43906 8.82273 5.378L8.23341 4.35692ZM3.53373 8.6558C3.56001 8.61011 3.59506 8.57005 3.63685 8.53792C3.67864 8.50579 3.72636 8.48222 3.77727 8.46856C3.82818 8.4549 3.88129 8.45142 3.93355 8.45831C3.98581 8.46521 4.0362 8.48234 4.08183 8.50874L5.10273 9.09806C5.45733 9.30284 5.30973 9.84662 4.90173 9.84662C4.83146 9.84664 4.76242 9.82823 4.70151 9.79322L3.68061 9.2036C3.48867 9.0926 3.42291 8.8472 3.53373 8.6558ZM28.2417 15.2761C28.2418 15.3288 28.2314 15.381 28.2112 15.4297C28.1911 15.4784 28.1615 15.5226 28.1243 15.5599C28.087 15.5971 28.0428 15.6267 27.9941 15.6469C27.9454 15.667 27.8932 15.6774 27.8405 15.6774H26.6617C26.609 15.6774 26.5568 15.667 26.5081 15.6469C26.4594 15.6267 26.4152 15.5971 26.3779 15.5599C26.3407 15.5226 26.3111 15.4784 26.291 15.4297C26.2708 15.381 26.2604 15.3288 26.2605 15.2761C26.2605 15.2234 26.2708 15.1712 26.291 15.1226C26.3111 15.0739 26.3407 15.0297 26.378 14.9924C26.4152 14.9552 26.4595 14.9256 26.5081 14.9055C26.5568 14.8854 26.609 14.875 26.6617 14.8751H27.8405C27.8932 14.875 27.9454 14.8854 27.994 14.9055C28.0427 14.9256 28.087 14.9552 28.1242 14.9924C28.1615 15.0297 28.1911 15.0739 28.2112 15.1226C28.2314 15.1712 28.2417 15.2234 28.2417 15.2761ZM3.33969 15.6774H2.16099C2.10828 15.6774 2.0561 15.667 2.00741 15.6469C1.95872 15.6267 1.91448 15.5971 1.87722 15.5599C1.83996 15.5226 1.81041 15.4784 1.79026 15.4297C1.7701 15.381 1.75974 15.3288 1.75977 15.2761C1.75976 15.2234 1.77013 15.1712 1.7903 15.1226C1.81046 15.0739 1.84002 15.0297 1.87728 14.9924C1.91454 14.9552 1.95877 14.9257 2.00745 14.9055C2.05613 14.8854 2.10831 14.8751 2.16099 14.8751H3.33969C3.39237 14.875 3.44455 14.8854 3.49324 14.9055C3.54194 14.9256 3.58618 14.9552 3.62345 14.9924C3.66073 15.0297 3.69029 15.0739 3.71047 15.1225C3.73064 15.1712 3.74103 15.2234 3.74103 15.2761C3.74104 15.3288 3.73067 15.381 3.71051 15.4297C3.69034 15.4784 3.66078 15.5226 3.62351 15.5599C3.58624 15.5972 3.54199 15.6267 3.49329 15.6469C3.44459 15.6671 3.39239 15.6774 3.33969 15.6774ZM24.7519 9.6461C24.7256 9.60048 24.7085 9.55011 24.7016 9.49788C24.6947 9.44565 24.6982 9.39257 24.7118 9.34168C24.7254 9.29079 24.749 9.24308 24.781 9.20128C24.8131 9.15948 24.8531 9.1244 24.8987 9.09806L25.9197 8.50874C25.9654 8.48234 26.0157 8.46521 26.068 8.45831C26.1203 8.45142 26.1734 8.4549 26.2243 8.46856C26.2752 8.48222 26.3229 8.50579 26.3647 8.53792C26.4065 8.57005 26.4415 8.61011 26.4678 8.6558C26.5786 8.8472 26.5128 9.0926 26.3209 9.20354L25.3 9.79316C25.1109 9.902 24.864 9.84032 24.7519 9.6461ZM14.5994 3.61514V2.4365C14.5994 2.38378 14.6097 2.33157 14.6299 2.28286C14.65 2.23415 14.6796 2.18989 14.7169 2.15262C14.7541 2.11534 14.7984 2.08578 14.8471 2.06563C14.8958 2.04547 14.948 2.03512 15.0007 2.03516C15.0535 2.03513 15.1056 2.0455 15.1543 2.06566C15.203 2.08582 15.2473 2.11539 15.2845 2.15266C15.3218 2.18993 15.3514 2.23419 15.3715 2.28289C15.3917 2.33159 15.402 2.38379 15.402 2.4365V3.61508C15.4019 3.72149 15.3597 3.82353 15.2844 3.89879C15.2092 3.97404 15.1072 4.01635 15.0007 4.01642C14.8943 4.01638 14.7923 3.9741 14.717 3.89885C14.6418 3.82361 14.5995 3.72156 14.5994 3.61514ZM20.4837 4.97666L21.0731 3.95594C21.1263 3.86372 21.2138 3.79638 21.3166 3.76874C21.4194 3.74109 21.529 3.7554 21.6212 3.80852C21.8131 3.92006 21.8789 4.16486 21.7681 4.35692L21.1786 5.378C21.0665 5.57228 20.8193 5.63384 20.6305 5.52506C20.5384 5.47176 20.4712 5.38407 20.4436 5.28124C20.4161 5.17841 20.4305 5.06886 20.4837 4.97666ZM13.0255 7.53128C13.0255 7.2953 13.2177 7.10324 13.4537 7.10324H16.5478C16.7838 7.10324 16.976 7.2953 16.976 7.53128V8.46104H13.0255V7.53128ZM20.4327 9.89966V10.6824L15.75 13.1907C15.2668 13.4497 14.7347 13.4497 14.2515 13.1907L9.56889 10.6824V9.89966C9.56889 9.54908 9.85419 9.26336 10.2049 9.26336H19.7964C20.1472 9.26336 20.4327 9.54908 20.4327 9.89966ZM19.7964 16.6707C20.1472 16.6707 20.4326 16.3854 20.4326 16.0348V11.5929L16.1289 13.898C15.4015 14.2875 14.5999 14.2875 13.8726 13.898L9.56883 11.5929V16.0348C9.56883 16.3854 9.85413 16.6707 10.2049 16.6707H19.7964ZM8.76627 9.89966V16.0348C8.76627 16.8276 9.41169 17.4734 10.2049 17.4734H19.7964C20.5897 17.4734 21.235 16.8276 21.235 16.0348V9.89966C21.235 9.10682 20.5897 8.46104 19.7964 8.46104H17.7784V7.53128C17.7784 6.85274 17.2263 6.30062 16.5477 6.30062H13.4536C12.7751 6.30062 12.223 6.85274 12.223 7.53128V8.46104H10.2049C9.41175 8.46104 8.76627 9.10682 8.76627 9.89966ZM25.2426 21.1525L19.0807 24.7104C17.4472 25.6533 16.4787 26.127 14.6602 26.3955C12.7389 26.6791 10.8265 26.533 9.04623 26.3332C8.23905 26.2429 7.50117 26.1743 6.75441 26.1209V20.923C8.25393 20.783 9.57291 20.8053 11.2618 21.257C11.2956 21.2658 11.3304 21.2702 11.3653 21.2702H15.7124C16.3738 21.2702 16.8173 21.9457 16.5679 22.5469C16.4232 22.8954 16.0873 23.1213 15.7124 23.1213H11.3653C11.3126 23.1213 11.2604 23.1316 11.2117 23.1518C11.163 23.1719 11.1188 23.2015 11.0815 23.2388C11.0442 23.2761 11.0147 23.3203 10.9946 23.369C10.9744 23.4177 10.9641 23.4699 10.9641 23.5227C10.9641 23.5753 10.9745 23.6275 10.9947 23.6761C11.0149 23.7248 11.0444 23.769 11.0817 23.8062C11.1189 23.8435 11.1632 23.873 11.2118 23.8932C11.2605 23.9133 11.3127 23.9237 11.3653 23.9236H15.7124C16.294 23.9236 16.824 23.6339 17.1417 23.1636C17.2911 23.1913 17.4397 23.2059 17.5861 23.2066C18.287 23.2087 18.6393 22.9416 19.1257 22.6602L24.366 19.635C24.7845 19.3932 25.3216 19.5369 25.5634 19.9555C25.8051 20.3743 25.6611 20.9112 25.2426 21.1525ZM5.95203 26.7934C5.95196 26.8913 5.91305 26.9851 5.84385 27.0543C5.77464 27.1236 5.68079 27.1625 5.58291 27.1626H3.77961C3.68172 27.1625 3.58786 27.1236 3.51865 27.0544C3.44944 26.9851 3.41053 26.8913 3.41049 26.7934V20.663C3.41053 20.5651 3.44944 20.4712 3.51865 20.402C3.58786 20.3328 3.68172 20.2939 3.77961 20.2938H5.58291C5.68079 20.2939 5.77465 20.3328 5.84386 20.402C5.91308 20.4712 5.95198 20.5651 5.95203 20.663V26.7934ZM23.9648 18.9397L18.7246 21.9651C18.245 22.2421 17.9931 22.4526 17.4289 22.3954C17.548 21.3719 16.7452 20.4679 15.7125 20.4679H11.4178C9.61815 19.9932 8.21991 19.9757 6.62517 20.1292C6.43059 19.7508 6.03669 19.4915 5.58285 19.4915H3.77961C3.13353 19.4915 2.60805 20.0169 2.60805 20.663V26.7934C2.60805 27.4398 3.13353 27.9652 3.77961 27.9652H5.58291C6.18447 27.9652 6.68133 27.5092 6.74697 26.9249C7.46577 26.9773 8.17845 27.0439 8.95701 27.1311C10.8781 27.3463 12.8096 27.4798 14.7774 27.1893C16.8003 26.8907 17.9043 26.3163 19.482 25.4051L25.6438 21.8473C26.4456 21.3847 26.7213 20.3559 26.2583 19.554C25.7954 18.7524 24.7666 18.4765 23.9648 18.9397Z" fill="black"/>
</g>
<defs>
<clipPath id="clip0_2671_3666">
<rect width="30" height="30" fill="white"/>
</clipPath>
</defs>
</svg>
