<svg width="30" height="30" viewBox="0 0 30 30" fill="none" xmlns="http://www.w3.org/2000/svg">
<g clip-path="url(#clip0_2671_3665)">
<path d="M7.85662 16.5316H22.1435C22.3979 16.5316 22.6037 16.3256 22.6037 16.0715C22.6037 15.8173 22.3979 15.6113 22.1435 15.6113H7.85662C7.60227 15.6113 7.39648 15.8173 7.39648 16.0715C7.39648 16.3256 7.60227 16.5316 7.85662 16.5316ZM22.1435 25.0345H7.85662C7.60227 25.0345 7.39648 25.2406 7.39648 25.4947C7.39648 25.7488 7.60227 25.9548 7.85662 25.9548H22.1435C22.3979 25.9548 22.6037 25.7488 22.6037 25.4947C22.6037 25.2406 22.3978 25.0345 22.1435 25.0345Z" fill="black"/>
<path d="M29.2635 27.9691H28.7917V13.5977H29.2635C29.5179 13.5977 29.7237 13.3917 29.7237 13.1376C29.7237 12.8835 29.5179 12.6774 29.2635 12.6774H25.7303L17.1943 4.53619C17.4079 4.19313 17.5369 3.79229 17.5369 3.35963C17.5369 2.1199 16.5286 1.11133 15.2889 1.11133C14.0518 1.11133 13.0457 2.1199 13.0457 3.35963C13.0457 3.7702 13.1646 4.15035 13.358 4.48176L4.2767 12.6774H0.735527C0.481172 12.6774 0.275391 12.8835 0.275391 13.1376C0.275391 13.3917 0.481172 13.5977 0.735527 13.5977H1.20732V27.9691H0.735527C0.481172 27.9691 0.275391 28.1751 0.275391 28.4292C0.275391 28.6833 0.481172 28.8893 0.735527 28.8893H29.2635C29.5178 28.8893 29.7236 28.6833 29.7236 28.4292C29.7236 28.1751 29.5178 27.9691 29.2635 27.9691ZM15.2889 2.0316C16.0209 2.0316 16.6167 2.62744 16.6167 3.35963C16.6167 4.08912 16.0209 4.6825 15.2889 4.6825C14.5597 4.6825 13.9661 4.08912 13.9661 3.35963C13.9661 2.62744 14.5596 2.0316 15.2889 2.0316ZM13.9723 5.16695C14.343 5.43783 14.7956 5.60277 15.2889 5.60277C15.7618 5.60277 16.1998 5.45477 16.5623 5.20492L24.3958 12.6763H5.65137L13.9723 5.16695ZM2.1276 27.9691V13.5977H27.8714V27.9691H2.1276Z" fill="black"/>
<path d="M7.1419 19.1432C7.01464 19.1432 6.89136 19.22 6.83059 19.3625L5.96452 21.5223L5.09739 19.3601C4.99315 19.115 4.6996 19.0807 4.54479 19.2394C4.45438 19.3334 4.43229 19.48 4.47858 19.6038L5.52577 22.1421L5.52794 22.1462C5.63628 22.3883 5.81845 22.4244 5.91747 22.4244H6.01104C6.13139 22.4244 6.29721 22.3762 6.40333 22.1421L7.45374 19.5948C7.52552 19.3766 7.39919 19.1432 7.1419 19.1432ZM7.96309 22.219L8.20274 21.644H9.45671L9.698 22.2236C9.80423 22.4504 10.0933 22.4874 10.2468 22.3256C10.3343 22.2341 10.3671 22.1059 10.307 21.9539L9.22427 19.3995C9.15677 19.2498 9.02757 19.1431 8.85114 19.1431H8.80843C8.63065 19.1431 8.4994 19.2524 8.43419 19.4025L7.35313 21.9544C7.29202 22.0978 7.32542 22.2352 7.41331 22.3259C7.55681 22.4778 7.85194 22.4626 7.96309 22.219ZM8.82917 20.14L9.19192 21.0123H8.46759L8.82917 20.14ZM12.1063 19.7707C12.3532 19.7707 12.5455 19.812 12.8208 19.9567C12.9429 20.0144 13.0938 19.9879 13.1813 19.8951C13.3221 19.749 13.2875 19.5032 13.1026 19.403C12.7398 19.198 12.436 19.1223 12.0675 19.1223C11.1318 19.1223 10.4442 19.7715 10.4442 20.7833C10.4442 21.8098 11.1463 22.4452 12.0675 22.4452C12.4208 22.4452 12.7326 22.3742 13.0999 22.1659C13.2982 22.0586 13.3155 21.8047 13.1798 21.6683C13.0906 21.5777 12.9401 21.5517 12.8159 21.6133C12.5458 21.7542 12.354 21.7961 12.1064 21.7961C11.4633 21.7961 11.1106 21.3925 11.1106 20.7834C11.1106 20.1767 11.4657 19.7707 12.1063 19.7707ZM15.1362 19.223C15.0716 19.1708 14.9896 19.1432 14.8993 19.1432H14.8566C14.7664 19.1432 14.6837 19.1705 14.6181 19.2227C14.5586 19.2706 14.5118 19.3323 14.4819 19.4025L13.4003 21.9564C13.3398 22.1057 13.3755 22.2386 13.4615 22.3262C13.6108 22.4821 13.9048 22.455 14.0114 22.219L14.251 21.644H15.5049L15.7462 22.2236C15.8522 22.4518 16.1426 22.4861 16.295 22.3256C16.3817 22.2345 16.4159 22.0996 16.3546 21.9539L15.2719 19.3995C15.2385 19.3248 15.1931 19.2665 15.1362 19.223ZM14.5152 21.0123L14.8774 20.14L15.2396 21.0123H14.5152ZM18.9243 19.4783V21.3185L17.5434 19.3248C17.3781 19.1108 17.1925 19.1484 17.1451 19.1432C16.9091 19.1432 16.7288 19.3362 16.7288 19.5631V22.0934C16.7288 22.2714 16.8652 22.4162 17.0466 22.4227C17.2305 22.4292 17.3946 22.2903 17.3946 22.0934V20.2486L18.782 22.2529C18.9345 22.4564 19.1239 22.4136 19.1699 22.4245C19.3995 22.4245 19.5906 22.2401 19.5906 22.0086V19.4783C19.5906 19.2751 19.4173 19.1296 19.2244 19.1465C19.0494 19.1617 18.9243 19.3052 18.9243 19.4783ZM21.0662 19.9023C21.3538 19.7329 21.8441 19.6996 22.3311 19.9567C22.4526 20.0144 22.6036 19.9879 22.6916 19.8951C22.8308 19.7506 22.7997 19.5038 22.6123 19.4033C21.9508 19.0269 21.2437 19.0548 20.7494 19.3234C20.2754 19.5835 19.9545 20.0896 19.9545 20.7833C19.9545 21.8042 20.651 22.4452 21.5772 22.4452C21.9355 22.4452 22.2456 22.3724 22.6095 22.1659C22.8082 22.059 22.8259 21.8049 22.69 21.6683C22.6008 21.5777 22.4498 21.5517 22.3262 21.6133C22.0562 21.7548 21.8617 21.7961 21.616 21.7961C20.9676 21.7961 20.6203 21.3828 20.6203 20.7834C20.6203 20.4205 20.7498 20.0862 21.0662 19.9023Z" fill="black"/>
<path d="M24.933 19.3014L24.1627 20.4218L23.3946 19.3038C23.2575 19.0942 22.9994 19.1052 22.8732 19.2436C22.7704 19.3511 22.7454 19.5217 22.8415 19.674L23.8285 21.0571V22.0933C23.8285 22.277 23.9771 22.4243 24.1627 22.4243C24.347 22.4243 24.4937 22.2799 24.4937 22.0933V21.0571L25.4895 19.6666C25.57 19.5379 25.5682 19.3609 25.4561 19.2448C25.3155 19.0951 25.0517 19.1191 24.933 19.3014Z" fill="black"/>
</g>
<defs>
<clipPath id="clip0_2671_3665">
<rect width="30" height="30" fill="white"/>
</clipPath>
</defs>
</svg>
